<svg id="Layer_1" data-name="Layer 1" xmlns="http://www.w3.org/2000/svg" viewBox="0 0 124.91 240"><defs><style>.cls-1{fill:#c4b78f;}.cls-2{fill:#ddd;}</style></defs><title>logoOMM_sours</title><path class="cls-1" d="M62.67,33.77h0c-.06-.66-.12-1.32-.2-2a.59.59,0,0,0-.13-.33,2.69,2.69,0,0,1-.56-1.64,2.23,2.23,0,0,0-.28-.94,3.23,3.23,0,0,1-.24-.68c-.09-.29-.16-.59-.27-.87-.36-.88-.72-1.75-1.11-2.62a1.43,1.43,0,0,0-.41-.58,1.43,1.43,0,0,1-.52-.76,2.75,2.75,0,0,0-1-1.44,1.33,1.33,0,0,1-.4-.53,4.37,4.37,0,0,0-.87-1.26,7.79,7.79,0,0,1-.91-1.07,9.28,9.28,0,0,0-1.37-1.5l-.33-.31c-.41-.39-.83-.79-1.25-1.17a3.56,3.56,0,0,0-.53-.43.89.89,0,0,0-.94-.11c-.29.16-.26.46-.27.73a8.33,8.33,0,0,0,.35,2.27c.1.4.21.79.31,1.19.18.75.35,1.49.53,2.24a2.85,2.85,0,0,1,.13.48c0,.83,0,1.66,0,2.49a11.77,11.77,0,0,1-.15,1.3c-.07.69-.14,1.38-.22,2.07-.12.91-.28,1.82-.36,2.74a6,6,0,0,1-.51,2c-.56,1.24-1.14,2.47-1.71,3.7,0,.09-.08.17-.11.25a.5.5,0,0,0,.54.68,10.71,10.71,0,0,0,1.12-.14c.61-.14,1.22-.32,1.84-.46a1.62,1.62,0,0,1,.58,0,5,5,0,0,0,2.59-.23,1.3,1.3,0,0,1,.93,0,6.15,6.15,0,0,0,2.49.11h0a2.45,2.45,0,0,1,1.11-.08,7.27,7.27,0,0,0,1.4,0c.41,0,.56-.25.59-.67s.07-1,.11-1.44a1.73,1.73,0,0,0,0-.32C62.73,34.19,62.7,34,62.67,33.77Z"/><path class="cls-1" d="M49.83,30.8A5.14,5.14,0,0,0,50.2,29c.09-1.34.15-2.68.26-4a8.16,8.16,0,0,0-.09-2.21c-.06-.33-.13-.65-.19-1a1.93,1.93,0,0,1-.06-.63,2.89,2.89,0,0,0-.24-1.45c-.08-.2-.12-.41-.18-.61a2.55,2.55,0,0,0-.13-.39.55.55,0,0,0-.9-.2c-.15.12-.29.27-.43.4a.73.73,0,0,0-.21.79,1.22,1.22,0,0,1-.06.88,8.26,8.26,0,0,0-.48,1.7,18.79,18.79,0,0,1-.58,1.94,3.28,3.28,0,0,0-.21.65,6.61,6.61,0,0,1-.77,2.21,29.89,29.89,0,0,1-1.49,3,3.16,3.16,0,0,1-.89,1.1c-.18.34-.38.67-.59,1a4,4,0,0,1-.85,1.52.69.69,0,0,1-.48.27c-.17.22-.35.43-.53.65a2.18,2.18,0,0,1-.5,1.05c-.25.3-.56.56-.79.88A8.66,8.66,0,0,0,38.94,38a.74.74,0,0,0,.56,1.05,1.3,1.3,0,0,0,.93,0l.83-.37a1.65,1.65,0,0,1,.42-.16l2-.29.45-.09L45.24,38v.09c.45,0,.91,0,1.35-.11a.68.68,0,0,0,.46-.25c.33-.6.64-1.23.94-1.85.12-.25.19-.54.33-.78A4.7,4.7,0,0,0,48.77,34a3.58,3.58,0,0,1,.59-1.6,1.4,1.4,0,0,0,.32-.83A3,3,0,0,1,49.83,30.8Z"/><path class="cls-1" d="M28.27,32.93v0h.13c.47,0,.77-.29.66-.75a1.2,1.2,0,0,1,0-.5A2.15,2.15,0,0,0,29,30.58c-.08-.27-.14-.56-.22-.83a1.16,1.16,0,0,1,.06-.84A1.93,1.93,0,0,1,29.6,28a12.06,12.06,0,0,0,2.12-1.45,3,3,0,0,0,.28-.22c.24-.26.15-.62-.2-.64a4.49,4.49,0,0,0-1.75.05c-.62.19-1.25.36-1.88.52a4,4,0,0,0-2.5,1.84,1,1,0,0,0-.14,1,.65.65,0,0,1-.52.89,1.36,1.36,0,0,1-.93-.09.62.62,0,0,0-.71.08,8.77,8.77,0,0,1-.89.54,4.37,4.37,0,0,0-.65.4,11.48,11.48,0,0,0-2.13,2.27,1.57,1.57,0,0,0-.26,1.2.75.75,0,0,0,.79.66,1.3,1.3,0,0,0,.9-.46c.18-.15.34-.3.53-.43.44-.29.9-.55,1.32-.87a2,2,0,0,1,1.38-.47.91.91,0,0,0,.59-.17,1.15,1.15,0,0,1,1.14-.17C26.81,32.71,27.55,32.8,28.27,32.93Z"/><path class="cls-1" d="M86.46,21.36l.18,0a3.54,3.54,0,0,1,2,1.11l.49.71a1.52,1.52,0,0,1,.1,1.75,1.7,1.7,0,0,0-.13,1.39c.15.6.37.78,1,.75a2,2,0,0,1,1,.18l.35.17a5.36,5.36,0,0,1,3,1.68,10.68,10.68,0,0,1,1.12.78l.84.69a2.52,2.52,0,0,0,.33.24.56.56,0,0,0,.86-.34.82.82,0,0,0-.08-.7c-.17-.3-.33-.61-.51-.91a5.43,5.43,0,0,0-.63-.93c-.46-.47-1-.89-1.48-1.33a2.88,2.88,0,0,0-.34-.23,1.91,1.91,0,0,1-.42-.33,3.7,3.7,0,0,0-1.12-.84,1.68,1.68,0,0,1-1-1.38,3.25,3.25,0,0,0-.84-2,8.14,8.14,0,0,0-1-1.08,10.68,10.68,0,0,0-3.39-1.47,2.7,2.7,0,0,0-.41-.05l-.58.06-.27.06a.51.51,0,0,0-.39.69C85.4,20.76,85.69,21.3,86.46,21.36Z"/><path class="cls-1" d="M37.18,32.7a1.66,1.66,0,0,0-.22,0,3.2,3.2,0,0,1-.54-.08,2,2,0,0,0-1.64.31,2.77,2.77,0,0,1-.88.34,1,1,0,0,0-.47.24c-.35.3-.68.63-1,1a.67.67,0,0,1-.83.13l-.83-.38a1.16,1.16,0,0,0-1.24,0,1.74,1.74,0,0,1-.53.26,5.51,5.51,0,0,0-1.91.78,3.35,3.35,0,0,0-1,.84.55.55,0,0,0,.11.84,1.12,1.12,0,0,0,1.15.19,4.11,4.11,0,0,1,.85-.16,5,5,0,0,1,2.74-.23,1,1,0,0,1,.5.23l.51.13c.17,0,.36.07.62.12s.38-.14.59-.25a5.19,5.19,0,0,1,.5-.31,1.84,1.84,0,0,0,.84-.72,3.51,3.51,0,0,1,.4-.53,1.46,1.46,0,0,1,.16-.21l0,0a2.1,2.1,0,0,1,.3-.22,1.54,1.54,0,0,1,.53-.19c.51-.28,1-.67,1.47-.94a.62.62,0,0,0,.41-.65C37.73,32.89,37.46,32.77,37.18,32.7Z"/><path class="cls-1" d="M80.83,27.81c.68.52,1.38,1,2.08,1.52a1.38,1.38,0,0,1,.64,1,1.52,1.52,0,0,0,.16.51.85.85,0,0,0,.83.53,4.76,4.76,0,0,0,1.06-.22,1.25,1.25,0,0,1,.5-.05,1.27,1.27,0,0,1,1.13-.2,6.57,6.57,0,0,1,2.61,1.41l.55.11a.9.9,0,0,0,.84-.24.51.51,0,0,0,.08-.77A4.06,4.06,0,0,0,90,30.29c-.34-.16-.67-.34-1-.51a3.8,3.8,0,0,0-1.83-.55,3.63,3.63,0,0,1-2-.61,9.78,9.78,0,0,1-1.24-.9,6,6,0,0,0-2.27-1.08l-.61-.13c-.69,0-.9.35-.61.87A1.45,1.45,0,0,0,80.83,27.81Z"/><path class="cls-1" d="M74.28,102.85l-.34.1a.66.66,0,0,1-.68-.14,5.24,5.24,0,0,0-.66-.47.88.88,0,0,0-1.11.43.39.39,0,0,0,0,.26,4,4,0,0,1,.42,1.47,1.06,1.06,0,0,0,1.69.54,1.63,1.63,0,0,1,1.12-.5,3.37,3.37,0,0,1,.71.09.57.57,0,0,0,.72-.57s0-.11,0-.19A1.54,1.54,0,0,0,74.28,102.85Z"/><path class="cls-1" d="M71.86,100.21a.54.54,0,0,0,.67.06.58.58,0,0,0,.32-.68,1.43,1.43,0,0,0-1-1.06,4.61,4.61,0,0,1-1.66-.78,1.38,1.38,0,0,0-.8-.27l-.49.08a.64.64,0,0,0-.46.56c-.07.26.1.4.29.5a2,2,0,0,1,.68.65,4.78,4.78,0,0,0,.34.42.8.8,0,0,0,1.13.2.58.58,0,0,1,.7.11Z"/><path class="cls-1" d="M124.43,54.71l0,0h.06l-.16-.42a62.45,62.45,0,1,0,.54,8.2A61.91,61.91,0,0,0,124.43,54.71ZM17.5,56.19a3.26,3.26,0,0,1-.34.22,3.46,3.46,0,0,0-1.18.74,2.2,2.2,0,0,1-.65.4A13,13,0,0,0,12.9,59a.86.86,0,0,0-.25.31c-.16.22-.3.45-.45.68a1.4,1.4,0,0,1-.95.6,4.2,4.2,0,0,0-1.08.54,1,1,0,0,0-.24.21A2.9,2.9,0,0,1,8,62.34a.75.75,0,0,1-1-.66,2.73,2.73,0,0,1,.08-.94,3.7,3.7,0,0,1,.26-.67,1.5,1.5,0,0,0,.05-1c-.12-.44-.41-.56-.78-.3A3.61,3.61,0,0,0,5.33,60a2.43,2.43,0,0,1-.63.65,7.46,7.46,0,0,1-.7.56c-.29.2-.51.11-.54-.24a2.91,2.91,0,0,1,0-.72.56.56,0,0,1,.38-.46c.37-.14.72-.31,1.08-.48a5.14,5.14,0,0,0,1.2-1.08,4.88,4.88,0,0,1,.54-.48,1,1,0,0,1,.5-.15,1.51,1.51,0,0,0,.78-.2c.23-.13.5-.19.75-.3.61-.28,1.21-.54,1.81-.84a2.59,2.59,0,0,1,1.66-.32,5.34,5.34,0,0,0,2.42-.46,1.49,1.49,0,0,1,.47-.13c.31-.07.63-.09.93-.17a5,5,0,0,1,1.75-.22,1.66,1.66,0,0,0,.64-.15c.3-.09.6-.19.89-.3l.55-.2c.13,0,.3-.1.35.07a.35.35,0,0,1-.15.28c-.64.4-1.3.77-1.94,1.16A6.19,6.19,0,0,0,17.5,56.19Zm19,21.8a3.53,3.53,0,0,0-1.25.09c-.6.14-1.22.21-1.83.3-.36.06-.72.09-1.07.17a1.21,1.21,0,0,0-.49.22c-.61.47-1.22,1-1.81,1.44a1.84,1.84,0,0,0-.62,1,1.78,1.78,0,0,1-.44.78c-.21.24-.38.51-.57.76a2.61,2.61,0,0,1-.27.3c-.44.35-.88.68-1.32,1-.16.12-.31.24-.48.35a.92.92,0,0,1-1.06,0,4.32,4.32,0,0,1-.5-.33,2.06,2.06,0,0,0-1.84-.34,3.06,3.06,0,0,0-.43.13c-.4.13-.43.17-.42.58s-.07.44-.37.5a.5.5,0,0,1-.62-.32A5.13,5.13,0,0,1,21,84h0c0-.28.09-.57.13-.85s.06-.35.11-.53a.81.81,0,0,0-.4-1,1.38,1.38,0,0,1-.37-.39,1.76,1.76,0,0,0-.72-.61.67.67,0,0,1-.35-.45,1.27,1.27,0,0,0-.32-.52,2,2,0,0,1-.66-1.84A1.71,1.71,0,0,0,18.3,77c-.12-.33-.06-.45.28-.61a2.7,2.7,0,0,0,1.08-.93,1.88,1.88,0,0,0,.21-.59c.06-.23.09-.47.15-.7a1.31,1.31,0,0,1,1-1c.16,0,.3-.14.46-.18a3.77,3.77,0,0,0,2-1.62,4.63,4.63,0,0,1,.5-.58,1.47,1.47,0,0,0,.43-.78,3.89,3.89,0,0,1,.12-.49,1.13,1.13,0,0,0,0-.75,1.36,1.36,0,0,1,0-.89,1.58,1.58,0,0,0,0-1,.84.84,0,0,1,.05-.74.82.82,0,0,0,.12-.25,1.06,1.06,0,0,1,.76-1,.43.43,0,0,0,.1-.09c.36-.41.71-.82,1.08-1.22a1.2,1.2,0,0,1,.37-.31,20.86,20.86,0,0,0,2.48-1.41,5.47,5.47,0,0,1,1.5-.62,9.47,9.47,0,0,0,1.73-.65A4.32,4.32,0,0,1,34,60.21a1.41,1.41,0,0,0,1.27-.93,2.18,2.18,0,0,1,2-1.47,2.48,2.48,0,0,0,1.68-1,1,1,0,0,0,.15-.51c0-.15,0-.31,0-.45A.77.77,0,0,0,39,55c-.2-.21,0-.48.26-.51a.81.81,0,0,1,.22,0c.57.09,1.13.19,1.7.27a6,6,0,0,0,1.12.08,5.47,5.47,0,0,1,1.76.12,1,1,0,0,0,.74-.09.84.84,0,0,1,1,.07.56.56,0,0,0,.71.06c.34-.19.69-.37,1-.55a.84.84,0,0,0,.44-.43c.08-.18.22-.33.31-.5a2.4,2.4,0,0,0,.2-1.89A4.76,4.76,0,0,0,47.8,50a1.37,1.37,0,0,1-.23-.63,1.1,1.1,0,0,0-.47-.74c-.42-.32-.83-.66-1.25-1s-.58-.37-.88-.56a1.49,1.49,0,0,1-.29-.2c-.21-.21-.17-.4.09-.54l.52-.26a1.08,1.08,0,0,1,1-.08,2.14,2.14,0,0,0,1.12.12,4.53,4.53,0,0,1,2,.15,1.93,1.93,0,0,0,.68,0c.15,0,.29-.07.44-.07A1.85,1.85,0,0,0,52,45.37a.76.76,0,0,0,.11-.85,2.38,2.38,0,0,1-.2-.64c-.05-.29,0-.37.33-.43s.55-.14.84-.19.41,0,.62,0a8.34,8.34,0,0,0,1,0,3.5,3.5,0,0,1,1.86.28,2,2,0,0,0,1,.15,2.16,2.16,0,0,1,.75.1c.38.11.75.25,1.11.39s.49.23.74.34a7.25,7.25,0,0,0,.87.36,2.62,2.62,0,0,1,1,.73,1.69,1.69,0,0,0,1.3.62.52.52,0,0,1,.3.08,3.61,3.61,0,0,1,1.46,1.44,1.49,1.49,0,0,0,.68.76,1.79,1.79,0,0,1,.45.38,7.83,7.83,0,0,1,.58.69,2.76,2.76,0,0,1,.33.64c.08.24,0,.32-.25.35-.48.07-1,.12-1.43.2a.66.66,0,0,0-.64.69,1.89,1.89,0,0,0,.19,1.14c.1.19.15.4.23.59a4.15,4.15,0,0,0,.29.6c.2.31.18.53-.15.7a2,2,0,0,1-.47.16c-.48.11-1,.21-1.43.29a1,1,0,0,0-.85.77,1,1,0,0,0,.22,1.17,1.37,1.37,0,0,1,.3.45,1.37,1.37,0,0,0,2,.74c.19-.09.39-.15.58-.23a3.57,3.57,0,0,0,1.88-1.56,1,1,0,0,0,.09-.48,1.75,1.75,0,0,1,.24-1,1,1,0,0,0,.08-.87,8.26,8.26,0,0,1-.17-1.11c0-.09,0-.26.11-.27a.44.44,0,0,1,.31.08.82.82,0,0,1,.38.74A.64.64,0,0,0,69,54l.06.06a3.47,3.47,0,0,1,.48,1.57,1.63,1.63,0,0,0,0,.31c.09.79.16,1.59.29,2.38a1.63,1.63,0,0,1-.26,1.29.66.66,0,0,0,0,.83c.25.41.22.49-.12.81a.56.56,0,0,0-.15.73,1.28,1.28,0,0,1-.12,1.38,3.23,3.23,0,0,0-.55,1.83.63.63,0,0,1-.21.42.65.65,0,0,0-.32.69.28.28,0,0,1,0,.18.42.42,0,0,1-.39.32.34.34,0,0,1-.38-.25,2.18,2.18,0,0,1-.11-.44,1,1,0,0,0-.61-.79L66,65.06a.82.82,0,0,0-.88.14c-.38.32-.63.27-.9-.14-.07-.11-.13-.24-.2-.36a3.87,3.87,0,0,0-.31-.65,7.92,7.92,0,0,0-2-2.35,1,1,0,0,1-.5-.56.49.49,0,0,0-.1-.15,1.71,1.71,0,0,0-2-.1,2,2,0,0,1-.74.51.26.26,0,0,0-.17.33,1.17,1.17,0,0,1-.19.91,1,1,0,0,0-.1.3c0,.23-.11.44-.39.49a.76.76,0,0,1-.78-.26s-.06-.1-.09-.15a.51.51,0,0,1-.09-.16,1.61,1.61,0,0,0-2.68-.22,2.56,2.56,0,0,0-.61,1.76,1.22,1.22,0,0,1-.68,1.17.48.48,0,0,1-.56,0c-.59-.56-1.43-.62-2.08-1.06a1.06,1.06,0,0,0-.39-.13,10.43,10.43,0,0,1-2.43-.72,1.26,1.26,0,0,0-1.12.06c-.37.21-.77.36-1.15.54a.66.66,0,0,1-.61,0,.49.49,0,0,0-.68.16c-.15.17-.28.36-.42.53l-.46.56a1.92,1.92,0,0,0-.25.38,1.41,1.41,0,0,1-.51.67.73.73,0,0,0-.24.37,10.34,10.34,0,0,1-1,2.09,7.13,7.13,0,0,0-1,1.87,3,3,0,0,1-.49.81c-.2.32-.45.61-.64.93a2.65,2.65,0,0,0-.24.72,6.2,6.2,0,0,0-.06,2.39,3.46,3.46,0,0,1-.38,2,.56.56,0,0,1-.52.31A7.55,7.55,0,0,1,36.45,78Zm26,45a60.21,60.21,0,0,1-22.36-4.28c.6-.33,1.21-.63,1.82-.93-.18-.16-.14-.39.09-.53a.74.74,0,0,1,.21-.07,1.5,1.5,0,0,0,1.12-.69,1.43,1.43,0,0,1,.53-.41c.37-.2.72-.44,1.08-.66a1.12,1.12,0,0,1,.37-.17c.71-.14,1.2-.14,1.44.52a1.19,1.19,0,0,0,1.21.84c.25,0,.49,0,.73,0s.48.22.37.55a1.3,1.3,0,0,1-.08.17c-.17.38-.12.58.24.78a1.26,1.26,0,0,0,.47.17,15.43,15.43,0,0,0,1.66.24,3.37,3.37,0,0,0,.93-.13,3.51,3.51,0,0,1,2.55.17,1.42,1.42,0,0,0,1,.14,1.1,1.1,0,0,1,.79.1l.55.22a1.36,1.36,0,0,0,.89,0,5.78,5.78,0,0,1,.92-.19,1.75,1.75,0,0,0,.79-.31c.38-.25.78-.46,1.15-.71a1.42,1.42,0,0,0,.39-.42c.25-.39.46-.48.86-.26a9.31,9.31,0,0,0,2.49,1,1.89,1.89,0,0,0,1.15,0,1.56,1.56,0,0,1,.71-.08,4.05,4.05,0,0,0,2.48-.56,1,1,0,0,1,.85-.12c.31.1.64.15,1,.25a1.82,1.82,0,0,0,1.41-.12s.05,0,.08,0c.93-.23,1.16-1,1.31-1.76a1.28,1.28,0,0,1,.09-.35,2.55,2.55,0,0,0,.16-1.47,1.2,1.2,0,0,0-.39-.79,9.64,9.64,0,0,0-1.88-1.55,2.16,2.16,0,0,0-1.49-.24c-.2,0-.39.25-.57.41s-.29.41-.54.34-.2-.37-.21-.59a.53.53,0,0,0-.08-.25c-.31-.35-.61-.71-1-1a3.8,3.8,0,0,0-.62-.38,1.3,1.3,0,0,1-.76-1.09,3.71,3.71,0,0,1,0-1.2.66.66,0,0,0,0-.31c-.18-.75-.38-1.49-.54-2.24-.07-.31,0-.63-.09-.94a2.07,2.07,0,0,0-.1-.71,7.34,7.34,0,0,1-.43-2.07,1.16,1.16,0,0,1,0-.32A3.43,3.43,0,0,0,65,99a.9.9,0,0,1-.07-.56,1.33,1.33,0,0,0-.12-.88,1.09,1.09,0,0,1-.12-.79,1.57,1.57,0,0,0-.13-.88A11.62,11.62,0,0,1,63.93,93a.32.32,0,0,0,0-.14c-.28-.58-.1-1.22-.28-1.82s-.27-1.18-.4-1.77a3.85,3.85,0,0,1-.07-.49,6.53,6.53,0,0,0-.08-.76.88.88,0,0,1,.34-1,1.86,1.86,0,0,0,.81-1.4,3.89,3.89,0,0,1,.12-.49,1.38,1.38,0,0,0,0-.45,8.94,8.94,0,0,0-.27-1.46,1.34,1.34,0,0,0-.53-.65.94.94,0,0,1-.44-1.14,6.15,6.15,0,0,0-.05-1.48c0-.1,0-.18,0-.27,0-.29,0-.39.3-.48a1.27,1.27,0,0,0,.73-1.79c-.21-.42-.42-.84-.61-1.26a.85.85,0,0,1-.12-.43A.88.88,0,0,0,63,75c-.62-.58-1.21-1.18-1.82-1.76a12.28,12.28,0,0,0-1-.87.76.76,0,0,1-.37-.49.87.87,0,0,0-.66-.8,15.48,15.48,0,0,0-2.31,1.78c-.28.33-.54.66-.81,1l-.36.44c-.35.41-.72.81-1.07,1.22A12.27,12.27,0,0,0,53.49,77l-.53.94a1,1,0,0,0,0,.3.85.85,0,0,0,.64.74,3.32,3.32,0,0,1,.75.32c.31.18.34.33.24.68a1.77,1.77,0,0,0-.08.4,4,4,0,0,1-.67,2,9.16,9.16,0,0,0-.65,1.29.6.6,0,0,0,.08.65.76.76,0,0,1,.11.77,1,1,0,0,0,.21,1.06c.21.25.42.51.65.75a.81.81,0,0,1,.2.79c-.14.75-.23,1.52-.35,2.28a1.85,1.85,0,0,1-.11.53,2.75,2.75,0,0,0-.2,1.1,2.56,2.56,0,0,1-.19.87,2.41,2.41,0,0,0-.18,1.24,1.35,1.35,0,0,1,0,.63,16.94,16.94,0,0,0-.54,3.26,8.28,8.28,0,0,1-.16.84c-.06.33-.11.65-.18,1a5.58,5.58,0,0,1-.2.83,1.1,1.1,0,0,0,0,.92,1.1,1.1,0,0,1,0,.48c0,.41-.07.81-.12,1.21a3.34,3.34,0,0,1-.17.71,1.4,1.4,0,0,0,0,1.1,1.25,1.25,0,0,1,0,1,5.9,5.9,0,0,0-.23.92.74.74,0,0,0,.1.46.68.68,0,0,1,0,.8,2.37,2.37,0,0,0-.36,1.56c0,.44,0,.48-.39.65a2.6,2.6,0,0,0-.59.41c-.25.23-.47.51-.72.75s-.42.28-.72.07a4.58,4.58,0,0,1-.73-.66,1.11,1.11,0,0,0-.73-.36c-.71-.13-1.28.29-1.93.36-.19,0-.37.11-.57.14a1.07,1.07,0,0,0-.89.58,3,3,0,0,1-.79.8c-.48.4-1,.78-1.49,1.17-.05,0-.14.07-.18.12-.45.61-1.18.84-1.72,1.31a.45.45,0,0,1-.54.12c-.18-.11-.2-.29-.18-.53a1.84,1.84,0,0,0-.05-1,1,1,0,0,1,.1-.51,2.72,2.72,0,0,1,.27-.42.84.84,0,0,0,0-1,.92.92,0,0,1-.14-.52,1.88,1.88,0,0,0-.52-1.27c-.1-.11-.18-.24-.28-.36a1.36,1.36,0,0,1-.31-1.1.94.94,0,0,0-.19-.88.57.57,0,0,1-.11-.29c-.11-.47-.23-.94-.32-1.42-.06-.28-.08-.56-.12-.84,0,0,0,0,0,0a14.69,14.69,0,0,1-.23-1.87,2.09,2.09,0,0,1,0-.66,1,1,0,0,0-.14-.82c-.07-.1-.12-.21-.19-.31a.42.42,0,0,1,0-.54,2.11,2.11,0,0,0,.47-1.91,4.05,4.05,0,0,1,.19-1.47c.14-.53.28-1,.45-1.57.23-.69.47-1.37.73-2a1.14,1.14,0,0,0,.07-.83.62.62,0,0,1,.06-.42c.2-.39.43-.77.64-1.15a5.83,5.83,0,0,1,1-1.48,1.05,1.05,0,0,0,.37-.9.51.51,0,0,1,.06-.3,5.2,5.2,0,0,1,.77-1,9.62,9.62,0,0,0,1.57-1.62,3,3,0,0,1,.47-.47,26.16,26.16,0,0,1,4.11-4.82C51.45,75.84,55.49,69.87,60.83,68l.72-.58a.69.69,0,0,1,.58-.16c.27,0,.54,0,.81,0a6.34,6.34,0,0,1,1.16.13l.06,0c.21,0,.43,0,.64,0l0,0a5.88,5.88,0,0,0,1.66.27h0a1,1,0,0,1,.24.15l.68.49-.26-.47c.28.08.57.17.86.28a1.05,1.05,0,0,1,.48.36L69,68a.84.84,0,0,0,.2-.45,1.35,1.35,0,0,1,.32-.83,5.22,5.22,0,0,0,.73-1.59,12.25,12.25,0,0,0,.63-2.45c0-.11.08-.22,0-.32a2.27,2.27,0,0,1,.17-1.21,3.78,3.78,0,0,0,.11-1.71,2.16,2.16,0,0,1,0-.76,6.29,6.29,0,0,0,.09-2.12,2.65,2.65,0,0,0-.24-.72,1.42,1.42,0,0,1-.22-.86.71.71,0,0,0-.14-.49,2.34,2.34,0,0,1-.49-1.3,3.52,3.52,0,0,0-.44-1.42,7.64,7.64,0,0,1-.35-.83l-.2-.45c-.15-.33-.3-.66-.46-1a1.64,1.64,0,0,0-.26-.42c-.3-.38-.62-.74-.93-1.11a.9.9,0,0,0-.09-.1,5.15,5.15,0,0,1-1.32-1.47,4.73,4.73,0,0,0-1-.81c-.33-.27-.66-.54-1-.79a4.52,4.52,0,0,0-.74-.49c-.72-.36-1.46-.68-2.18-1a1.78,1.78,0,0,0-.82-.21,2,2,0,0,1-1.12-.44s-.06-.1-.1-.16a1.17,1.17,0,0,1,.77-.37,2.22,2.22,0,0,0,1.19-.5.82.82,0,0,1,.5-.15.57.57,0,0,0,.55-.32.71.71,0,0,1,.5-.35,2.14,2.14,0,0,0,1.55-1.91.67.67,0,0,0-.56-.76,3.39,3.39,0,0,0-.45,0c-.38,0-.76-.05-1.13-.12A2.49,2.49,0,0,0,61,38c-.7.18-1.42.3-2.13.44a1,1,0,0,1-.41,0,8,8,0,0,0-2.07-.07,1.34,1.34,0,0,0-.81.22,1.45,1.45,0,0,1-1,.25,2.07,2.07,0,0,0-1.15.22,1.48,1.48,0,0,1-.92.14l-.77-.09a3.24,3.24,0,0,0-1.38.14,3.23,3.23,0,0,1-1,.08,4.23,4.23,0,0,0-1.07.12c-.77.14-1.55.22-2.33.32L44.77,40c-.45,0-.9,0-1.35.1a3.89,3.89,0,0,0-.84.15,4.66,4.66,0,0,1-1.92.29.77.77,0,0,0-.69.27,4.71,4.71,0,0,1-.41.35.21.21,0,0,0,0,.37c.28.27.55.56.85.8a3.46,3.46,0,0,0,.63.34c.39.2.78.39,1.16.62a.44.44,0,0,1,.16.33c0,.07-.17.16-.27.19a3.68,3.68,0,0,1-.8.17,4,4,0,0,0-1.23.28,2.69,2.69,0,0,1-1.46.21c-.13,0-.3.08-.45.15a11.23,11.23,0,0,1-1.06.49,2.21,2.21,0,0,1-.85.06,1.52,1.52,0,0,0-.83.15c-.52.26-1.05.52-1.6.73a3.78,3.78,0,0,1-.89.16c-.3,0-.6.05-.9.11a.7.7,0,0,0-.42.23,1.36,1.36,0,0,1-.73.49c-.9.37-1.79.78-2.69,1.17a1.16,1.16,0,0,1-.34.12,6.63,6.63,0,0,0-1.52.44,3.16,3.16,0,0,0-1.07.57,2.43,2.43,0,0,1-.6.31c-.5.22-1,.42-1.49.66a5,5,0,0,1-1.57.42c-.49.06-1,.15-1.47.22l-.45.07c-.35,0-.71.1-1.07.11a7.29,7.29,0,0,0-1.85.41,3.09,3.09,0,0,0-.74.34,1.82,1.82,0,0,1-.86.24,3.16,3.16,0,0,0-1.31.29,3.11,3.11,0,0,1-1.58.36,1.13,1.13,0,0,0-.63.19,4.47,4.47,0,0,1-.95.41,4.65,4.65,0,0,1-.76.15A.61.61,0,0,1,9.08,53a3,3,0,0,1-.14-.66,2.26,2.26,0,0,1,0-.45c0-.58-.21-.77-.78-.61-.16,0-.32.1-.47.15a.69.69,0,0,0-.43.37c-.25.46-.53.89-.76,1.34a1.68,1.68,0,0,0-.19.64.93.93,0,0,1-.42.8,3.33,3.33,0,0,1-1.19.63,2.19,2.19,0,0,0-.64.42L4,55.35a1.63,1.63,0,0,1-.69.32c-.35.07-.69.16-1,.24A60.56,60.56,0,0,1,117.1,36.35l-.12.11a.59.59,0,0,1-.29.32,7.45,7.45,0,0,0-1.22.86c-.94.78-1.93,1.5-2.94,2.19-.76.53-1.47,1.12-2.2,1.68l-.42.26a7.81,7.81,0,0,0-1.73,1.31,13.29,13.29,0,0,1-1.55,1.23c-.58.43-1.18.83-1.76,1.25-.37.26-.74.52-1.1.8l-1.89,1.48c-.13.1-.28.17-.42.27l-.71.55c-.25.2-.5.43-.76.63a11.12,11.12,0,0,1-1.75,1.21,1.44,1.44,0,0,0-.46.43,2.11,2.11,0,0,1-.79.59,4.6,4.6,0,0,0-1.46,1,4.84,4.84,0,0,1-.7.57,18.31,18.31,0,0,1-1.77,1.26,7.14,7.14,0,0,0-1,.78,14,14,0,0,1-1.16.87,10.66,10.66,0,0,1-2,1.24.83.83,0,0,0-.22.14,13.32,13.32,0,0,0-1.12,1,11.58,11.58,0,0,1-2.39,1.85,3.13,3.13,0,0,0-.52.43,3.41,3.41,0,0,1-1.31.94.55.55,0,0,0-.2.11,3.52,3.52,0,0,1-.73.66,23.62,23.62,0,0,1-2.61,2c-.13.1-.25.22-.37.33a1.55,1.55,0,0,1-.33.3,3,3,0,0,0-1,.9,5.08,5.08,0,0,1-1,.77,5.3,5.3,0,0,0-1,.85,6.85,6.85,0,0,1-1,.87,7.91,7.91,0,0,0-1.53,1.58A10.41,10.41,0,0,1,72.41,71l-1.2,1.22c-.07.06-.11.15-.18.21l-1.51,1.36a1.59,1.59,0,0,0-.24.2,10.43,10.43,0,0,1-1.42,1.32,10.09,10.09,0,0,0-.77.83c-.2.24-.15.39.13.54a.91.91,0,0,0,.79.06l1.09-.43a.49.49,0,0,0,.2-.11l1-1.13a4.83,4.83,0,0,1,.5-.51c.53-.48,1.07-.93,1.61-1.4a1.27,1.27,0,0,0,.27-.3,5,5,0,0,1,1.4-1.4,2.78,2.78,0,0,0,.51-.57,3.22,3.22,0,0,1,.66-.67,9.51,9.51,0,0,0,2-1.72.41.41,0,0,1,.12-.14c.66-.37,1-1,1.61-1.51a6.44,6.44,0,0,1,.84-.61,2.1,2.1,0,0,0,.74-.65.69.69,0,0,1,.21-.24c.81-.48,1.38-1.31,2.31-1.64a1.24,1.24,0,0,0,.43-.33A11.67,11.67,0,0,1,85,62.19a17.62,17.62,0,0,0,2.48-1.83,11,11,0,0,1,1-.78c.33-.26.64-.56,1-.82a4,4,0,0,1,.54-.32,2.48,2.48,0,0,0,.61-.37,7.93,7.93,0,0,1,1.61-1.16c.27-.17.51-.38.76-.57l.63-.44c.21-.14.41-.3.61-.45a3.08,3.08,0,0,1,.58-.41,5.35,5.35,0,0,0,1.71-1.26,1.46,1.46,0,0,1,.41-.34,5.36,5.36,0,0,0,1.57-1.22,4.61,4.61,0,0,1,1.35-1,3.08,3.08,0,0,0,.71-.55,8.33,8.33,0,0,1,.67-.54A14.06,14.06,0,0,0,102.72,49c.73-.63,1.52-1.18,2.29-1.78.32-.25.62-.52.94-.77s.53-.4.81-.58.56-.35.84-.53c.62-.43,1.24-.85,1.86-1.29.22-.16.41-.35.62-.52l.57-.44,1-.78L113.34,41c.07,0,.17-.07.23-.14a5.38,5.38,0,0,1,1.37-.94,1.49,1.49,0,0,0,.44-.46.9.9,0,0,1,.55-.35,1.31,1.31,0,0,0,.55-.28c.31-.26.6-.55.94-.87a2.43,2.43,0,0,0,.26.29,2.08,2.08,0,0,1,.21-.21,59.73,59.73,0,0,1,4.43,15.15l-.07,0-.24.09a1.29,1.29,0,0,1-.72.79c-.75.35-1.43.83-2.17,1.21a6.65,6.65,0,0,1-1.31.49,5.84,5.84,0,0,0-1.71.71c-.23.14-.5.21-.74.34a11.46,11.46,0,0,1-2.41.9.75.75,0,0,0-.33.14,6,6,0,0,1-1.8.93c-.36.16-.74.26-1.11.39a1.16,1.16,0,0,0-.37.18,4.09,4.09,0,0,1-1.19.62c-.34.16-.66.36-1,.53a10.4,10.4,0,0,1-1.06.52A32.61,32.61,0,0,0,103,62.52a10.23,10.23,0,0,1-1.13.45c-1,.4-2,.77-2.93,1.21s-1.77.9-2.66,1.36l-.85.41a11.09,11.09,0,0,1-1.65.74c-1.06.31-2,.79-3.07,1.2-.18.07-.38.11-.56.16a2.22,2.22,0,0,0-.39.12,8.29,8.29,0,0,1-1.8.73,10.34,10.34,0,0,0-1.27.58,1,1,0,0,1-.21.09,7.17,7.17,0,0,0-1.77.89c-.24.14-.49.23-.73.36a4,4,0,0,0-.67.38,2.62,2.62,0,0,1-1.39.69h0c-.63.32-1.26.64-1.88,1-.19.09-.37.21-.56.3s-.66.3-1,.43a4.26,4.26,0,0,1-.47.15l-.67.25-.08,0a7.75,7.75,0,0,0-1.4.49,18.87,18.87,0,0,0-2.41.9c-.5.23-1,.52-1.49.76a3,3,0,0,1-.76.25,2.63,2.63,0,0,0-1.53.6,2.93,2.93,0,0,1-1.2.62,6.82,6.82,0,0,0-2,1.11c-.38.24-.38.5-.09.87.14.19.13.31,0,.46-.46.41-.42.59.13.88a1.72,1.72,0,0,1,.52.41,1.39,1.39,0,0,0,.82.52c.4.1.78.24,1.17.34a3.32,3.32,0,0,0,.75.15,5.57,5.57,0,0,1,1.72.37c.42.13.85.19,1.28.29a4.15,4.15,0,0,1,.69.19,3.9,3.9,0,0,0,1.31.34,2,2,0,0,1,.7.17,4.27,4.27,0,0,0,1.32.28,11.16,11.16,0,0,1,1.16.16l1.34.23a2,2,0,0,1,.67.12,10.79,10.79,0,0,0,2.68.58,5.29,5.29,0,0,1,.57.15,2.9,2.9,0,0,0,1.2.18.59.59,0,0,1,.23,0,2,2,0,0,0,1.33,0,1,1,0,0,1,.61,0,2.86,2.86,0,0,0,1.12.14,16.08,16.08,0,0,1,2.94.12c.57.06,1.14.1,1.71.17a6.42,6.42,0,0,1,2.56.72,9.19,9.19,0,0,0,1.18.43,2.47,2.47,0,0,1,.61.3,7.86,7.86,0,0,0,2.64,1,2.23,2.23,0,0,1,1.05.5.6.6,0,0,0,.67.15,1.12,1.12,0,0,1,.7,0c.59.14,1.19.23,1.78.36a6,6,0,0,1,.83.23.79.79,0,0,0,.73,0,1.1,1.1,0,0,1,1.31.12,2.3,2.3,0,0,0,.79.32c.66.16,1.32.29,2,.44a1.51,1.51,0,0,0,.35.06,2.83,2.83,0,0,1,1.28.26,2.13,2.13,0,0,0,.61.12,6.59,6.59,0,0,1,2.45.43c.09,0,.2,0,.3.08s.57,0,.59.41a.28.28,0,0,1,0,.09c.21,0,.41,0,.62.08A60.61,60.61,0,0,1,62.46,123Zm-17.87-9.68c.08,0,.16.07.34.14a1.33,1.33,0,0,1-.34.23.25.25,0,0,1-.19-.13A.18.18,0,0,1,44.59,113.34Zm1.13-.57c.18-.26.34-.54.54-.78a.65.65,0,0,1,1.08,0c.23.28.51.52.76.77s.54.49.78.75a2.22,2.22,0,0,0,.8.59.58.58,0,0,1,.32.33.76.76,0,0,1,0,.51.39.39,0,0,1-.49.11,3.21,3.21,0,0,1-1.29-.51.76.76,0,0,0-.77-.13c-.2,0-.4.07-.59.11s-.08-.14-.08-.18c0-.55-.31-.81-.75-1l-.12-.05C45.49,113.16,45.48,113.11,45.72,112.77ZM59,80.15a1.29,1.29,0,0,0-.07.8c.1.68-.3,1-1,.84-.34-.1-.66-.22-1-.34a.75.75,0,0,1-.47-.57c0-.26-.12-.52-.18-.79a1,1,0,0,1,1.16-1.22,5.32,5.32,0,0,0,.56-.12.74.74,0,0,1,.87.15.92.92,0,0,1,.2,1A1.34,1.34,0,0,1,59,80.15Zm.09,4.31a.34.34,0,0,1-.27.38,1.79,1.79,0,0,1-1.14-.11.37.37,0,0,1-.18-.32.4.4,0,0,1,.26-.26,1.94,1.94,0,0,1,.54,0h0c.15,0,.3,0,.45,0A.34.34,0,0,1,59.09,84.46Zm-2.6-.33a.66.66,0,0,1,.33.33.35.35,0,0,1-.4.45l-1-.15-.18,0c-.3-.09-.46-.28-.41-.5s.21-.31.69-.31C55.76,84,56.13,84,56.49,84.13Zm.37,31.28a1.62,1.62,0,0,1,.74.16,2.42,2.42,0,0,0,1.59.12.77.77,0,0,1,.74.11,4.23,4.23,0,0,1-.48.58,2.29,2.29,0,0,1-2.23.75,1.13,1.13,0,0,0-.41-.06,1.18,1.18,0,0,1-.81-.33,1.32,1.32,0,0,0-.78-.34,1.19,1.19,0,0,1-.46-.15.22.22,0,0,1,.06-.42C55.5,115.68,56.18,115.52,56.86,115.41ZM61.6,80.34c0,.22,0,.52,0,.82a.44.44,0,0,1-.49.51c-.33,0-.53-.16-.5-.49a9.86,9.86,0,0,0,0-1.63,1.55,1.55,0,0,1,.2-.77.32.32,0,0,1,.6,0,2.28,2.28,0,0,1,.14.65c0,.13,0,.27,0,.41S61.58,80.12,61.6,80.34ZM61,83.91h0c.21,0,.42,0,.63,0s.27.08.29.16a.41.41,0,0,1-.07.36.87.87,0,0,1-.46.25,6.5,6.5,0,0,1-1.08,0c-.34,0-.53-.18-.52-.39s.22-.38.53-.4S60.79,83.91,61,83.91Zm2.19,31.25a.42.42,0,0,1,.48-.17,2.67,2.67,0,0,1,.57.16,1.5,1.5,0,0,0,1.1.06c.47-.16,1-.3,1.42-.47a1.68,1.68,0,0,1,1.19,0,6,6,0,0,0,1.29.19.29.29,0,0,0,.2-.08,5.7,5.7,0,0,0,.67-.52,2.08,2.08,0,0,0,.34-.48c.25-.44.48-.51.92-.25a1.36,1.36,0,0,1,.34.23,3.26,3.26,0,0,1,.22.34,8,8,0,0,1-.29,1.1.71.71,0,0,1-1,.29,8.59,8.59,0,0,0-.81-.39.75.75,0,0,0-.69.09c-.49.29-1,.55-1.51.83a.72.72,0,0,1-.77,0,1.59,1.59,0,0,0-1.87.12.79.79,0,0,1-1.08,0,7.64,7.64,0,0,1-.62-.51A.43.43,0,0,1,63.21,115.16ZM116.38,90l-.18,0a.85.85,0,0,1-.61.13,16.65,16.65,0,0,0-2.22-.4,3,3,0,0,1-.83-.2,5.55,5.55,0,0,0-1.51-.3,3.66,3.66,0,0,1-.7-.15,4.61,4.61,0,0,0-1-.26,11,11,0,0,1-2.14-.38,8.77,8.77,0,0,0-1-.12c-.12,0-.24,0-.36,0-1-.19-2-.38-3-.59s-2-.43-3-.69a5.21,5.21,0,0,1-1.24-.53,2.85,2.85,0,0,0-1.2-.37,1.68,1.68,0,0,1-1.12-.42,1.37,1.37,0,0,0-.56-.26l-2-.57-.53-.13c-.29-.06-.59-.14-.88-.17-.63-.08-1.26-.14-1.89-.2a5.72,5.72,0,0,1-.59,0,5.22,5.22,0,0,0-1.58-.09c-.63,0-1.26,0-1.89,0a1.19,1.19,0,0,1-.52-.14.91.91,0,0,0-.7-.08,1.2,1.2,0,0,1-.75,0,8,8,0,0,0-1.06-.22,16.15,16.15,0,0,1-2.87-.42,17.49,17.49,0,0,1-2.54-.82,1.16,1.16,0,0,0-.53-.09,2.92,2.92,0,0,1-1.36-.26,2.44,2.44,0,0,0-.61-.12,8.78,8.78,0,0,1-1-.21,5.07,5.07,0,0,0-1.68-.33,1.41,1.41,0,0,1-.44-.08l-1.27-.31-.24-.09V81a4.19,4.19,0,0,1,1.15-.32,3,3,0,0,0,1.35-.35,2.11,2.11,0,0,1,1-.18,4.13,4.13,0,0,0,1.2-.2,1.93,1.93,0,0,1,.79-.13,3.88,3.88,0,0,0,.67-.06l.93-.17a13,13,0,0,1,1.87-.27c.11,0,.22-.11.33-.14a1.91,1.91,0,0,1,.52-.14,9.11,9.11,0,0,0,2-.29c.53-.14,1.07-.17,1.6-.28a3.61,3.61,0,0,0,.87-.24A2,2,0,0,1,86,78a2.55,2.55,0,0,0,.67-.07c.46-.08.91-.22,1.38-.26a2.73,2.73,0,0,0,1.19-.38.88.88,0,0,1,.77-.15,1.1,1.1,0,0,0,.36,0c.37,0,.75-.1,1.12-.11a7.52,7.52,0,0,0,1.25-.17c1-.2,1.9-.34,2.86-.47A4.81,4.81,0,0,0,96.91,76a2.36,2.36,0,0,1,.74-.18c.7-.08,1.41-.13,2.11-.25s1.12-.31,1.69-.46,1.27-.22,1.91-.33a8.14,8.14,0,0,0,2.13-.37,1.85,1.85,0,0,1,.62-.12c.34,0,.69-.06,1-.09h0a2.57,2.57,0,0,0,1.52-.21c.5-.15,1-.25,1.54-.36a3.12,3.12,0,0,1,.44-.09,2.93,2.93,0,0,0,1.38-.39.55.55,0,0,1,.34-.07,10.48,10.48,0,0,0,3.25-.52,7.18,7.18,0,0,1,1.47-.36c.45,0,.91-.13,1.38-.17s1-.2,1.46-.29,1.11-.19,1.66-.28c.34,0,.45,0,.5.16l.2,0A60.26,60.26,0,0,1,116.38,90Zm6.2-20.27a1.36,1.36,0,0,1-.35-.07c0,.3-.16.42-.52.52a1.65,1.65,0,0,1-.58.07,6,6,0,0,0-1.88.23c-.28.08-.56.12-.84.19a9.2,9.2,0,0,0-1.94.42.86.86,0,0,1-.32.05,21.41,21.41,0,0,0-3.09.4,6.94,6.94,0,0,0-.78.22c-.24,0-.47.08-.71.14a3,3,0,0,0-.73.19,1.74,1.74,0,0,1-1,.2,2.41,2.41,0,0,0-1.33.16.94.94,0,0,1-.22.07l-2.78.38a5.93,5.93,0,0,0-.72.1c-.72.16-1.44.34-2.16.51a.57.57,0,0,1-.22,0,2.58,2.58,0,0,0-1.28.22,1.34,1.34,0,0,1-.4.07,8.74,8.74,0,0,0-2.48.44s-.09,0-.14,0c-.82,0-1.58.35-2.4.32a2.53,2.53,0,0,0-.7.16,4.68,4.68,0,0,1-1.82.27,1.9,1.9,0,0,0-.61.1,4.13,4.13,0,0,1-.75.19,3.67,3.67,0,0,0-1.31.29,2.35,2.35,0,0,1-.35.11c-.86.18-1.71.37-2.57.53-.69.13-1.39.23-2.09.34a2.21,2.21,0,0,0-.52.14,3.78,3.78,0,0,1-1.24.27,7.43,7.43,0,0,0-1.14.23,6.13,6.13,0,0,1-1.65.28,3.26,3.26,0,0,0-1,.18,4.17,4.17,0,0,1-1.92.21,1.46,1.46,0,0,0-1.21.22.58.58,0,0,1-.61,0,.9.9,0,0,0-.7,0,9.17,9.17,0,0,1-1.12.37,6.55,6.55,0,0,1-.89.1c-.35,0-.69,0-1,.09-.67.11-1.33.25-2,.38l-.22,0-2.09.58a3.17,3.17,0,0,0-.49.24.67.67,0,0,1-.89-.14.44.44,0,0,1,.47-.35A3.78,3.78,0,0,0,69,78.91c.53-.27,1.09-.42,1.64-.64a13.31,13.31,0,0,0,2.13-1.08A4.43,4.43,0,0,1,75,76.38a1.64,1.64,0,0,0,.77-.23c.6-.34,1.22-.66,1.83-1a1.18,1.18,0,0,1,.3-.1,7.13,7.13,0,0,0,2.51-.86,8.76,8.76,0,0,0,.84-.35l2.4-1.34L85,71.8a3,3,0,0,0,.58-.34,9.32,9.32,0,0,1,2-.93,4.09,4.09,0,0,0,.42-.16,10.63,10.63,0,0,1,2.36-.87c.88-.28,1.73-.65,2.59-1a3,3,0,0,1,.37-.16,13.7,13.7,0,0,0,2.76-1.24c.29-.14.59-.22.88-.35a2.21,2.21,0,0,0,.62-.35,3.68,3.68,0,0,1,1.78-1,3.66,3.66,0,0,0,.55-.21l.67-.25a1.4,1.4,0,0,0,.37-.17,1.55,1.55,0,0,1,.88-.32,1.84,1.84,0,0,0,1-.4,7.73,7.73,0,0,1,1.78-.87c.86-.36,1.71-.76,2.56-1.14a1.06,1.06,0,0,1,.25-.11,3.57,3.57,0,0,0,1.47-.67,9.21,9.21,0,0,1,1.88-.87,5.68,5.68,0,0,0,1.81-.82,5.52,5.52,0,0,1,.8-.42c.17-.09.37-.15.53-.25a2.58,2.58,0,0,1,1.34-.5.75.75,0,0,0,.38-.22.91.91,0,0,1,.78-.29.83.83,0,0,0,.71-.31.77.77,0,0,1,.4-.26A6,6,0,0,0,119,56.8c.68-.28,1.37-.56,2.07-.81a3.43,3.43,0,0,0,.92-.35.41.41,0,0,1,.37,0,.43.43,0,0,1,.11.3l.15,0a59.5,59.5,0,0,1,.36,6.58A60.42,60.42,0,0,1,122.58,69.74Z"/><path class="cls-1" d="M59.62,57.77c.42.18.83.36,1.25.51a.46.46,0,0,0,.34-.06,1.19,1.19,0,0,0,.57-1.28c-.08-.52-.23-.66-.83-.78-.13,0-.27,0-.46-.07l-.77.23a.71.71,0,0,0-.3,1.27A.67.67,0,0,0,59.62,57.77Z"/><path class="cls-1" d="M47.12,99.14A1.54,1.54,0,0,0,46,99a5.92,5.92,0,0,0-.89.32,1.7,1.7,0,0,1-1.23.15,3.32,3.32,0,0,0-.5-.07,1.77,1.77,0,0,0-1.18.34c-.19.18-.38.36-.58.52a.37.37,0,0,0-.1.51.62.62,0,0,0,1,.33,1.29,1.29,0,0,1,1.34,0c.13.08.26.14.4.21a.86.86,0,0,0,1.05-.12,4,4,0,0,1,1.87-1.13.49.49,0,0,0,.39-.45A.55.55,0,0,0,47.12,99.14Z"/><path class="cls-1" d="M41.72,96.37a.8.8,0,0,0,.38.68,10.6,10.6,0,0,0,1.2.64c.64.27,1,.12,1.29-.49.2-.37.16-.5-.16-.77a16.7,16.7,0,0,1-2-1.74,1.76,1.76,0,0,0-.57-.32,8.42,8.42,0,0,0-1,.3.51.51,0,0,0-.37.56.72.72,0,0,0,.51.59,1.09,1.09,0,0,0,.26,0C41.67,95.91,41.7,95.92,41.72,96.37Z"/><path class="cls-1" d="M114.06,54a4,4,0,0,0,3.17-1.24,5,5,0,0,0,1.12-3.48,5.06,5.06,0,0,0-1.11-3.49,4.07,4.07,0,0,0-3.17-1.23,4.15,4.15,0,0,0-3.2,1.21,5,5,0,0,0-1.12,3.49,5.07,5.07,0,0,0,1.12,3.51A4.09,4.09,0,0,0,114.06,54Zm-2-7.28a2.39,2.39,0,0,1,2-.88,2.37,2.37,0,0,1,2,.88,4.11,4.11,0,0,1,.68,2.56,4.16,4.16,0,0,1-.68,2.58,2.8,2.8,0,0,1-4,0,4.17,4.17,0,0,1-.68-2.57A4,4,0,0,1,112,46.67Z"/><path class="cls-1" d="M115.78,67.17h0L113.83,61h-2.34v8.09H113V65.31c0-.44,0-1.3-.1-2.59h0l2,6.35h1.57l2.09-6.34h0c0,1-.07,1.65-.08,1.88v4.46h1.6V61h-2.34Z"/><path class="cls-1" d="M111.58,83.41h0l-1.91-6.19h-2.34v8.1h1.53V81.55c0-.43,0-1.29-.1-2.58h0l2,6.35h1.57L114.38,79h.05c0,1-.07,1.64-.07,1.88s0,.45,0,.63v3.83H116v-8.1h-2.34Z"/><path class="cls-2" d="M4.19,188.09Q.56,183.65.56,175V155.14q0-8.62,3.63-13t12.11-4.35q8.43,0,12.08,4.38T32,155.14v20q0,8.57-3.66,13T16.3,192.54Q7.81,192.54,4.19,188.09ZM20,182.89a11.48,11.48,0,0,0,1-5.17V152.5a11.07,11.07,0,0,0-1-5.1c-.64-1.2-1.88-1.81-3.72-1.81s-3.08.61-3.72,1.81a11.08,11.08,0,0,0-.95,5.1v25.22a11.83,11.83,0,0,0,.92,5.21c.61,1.22,1.86,1.84,3.75,1.84S19.38,184.14,20,182.89Z"/><path class="cls-2" d="M64.6,138.83H78.38v53H67.78V158.59H67.4L62,191.81H53.48L48,158.59h-.38v33.22H37.05v-53H50.83l6.88,37.24Z"/><path class="cls-2" d="M110.62,138.83h13.77v53H113.8V158.59h-.38L108,191.81H99.49L94,158.59h-.38v33.22H83.07v-53H96.84l6.89,37.24Z"/><path class="cls-2" d="M7,216.8a4.93,4.93,0,0,1-2.75-.68,3.64,3.64,0,0,1-1.48-1.92,8.9,8.9,0,0,1-.44-2.93v-6.46a8.31,8.31,0,0,1,.45-2.89,3.69,3.69,0,0,1,1.48-1.85A5.17,5.17,0,0,1,7,199.43a5,5,0,0,1,2.73.65,3.73,3.73,0,0,1,1.46,1.86,8.11,8.11,0,0,1,.46,2.87v6.48a8.48,8.48,0,0,1-.46,2.9,3.79,3.79,0,0,1-1.46,1.92A4.76,4.76,0,0,1,7,216.8Zm0-1.87a2.24,2.24,0,0,0,1.43-.39,1.94,1.94,0,0,0,.65-1.1,7.22,7.22,0,0,0,.17-1.65v-7.46A7,7,0,0,0,9,202.7a1.84,1.84,0,0,0-.65-1A2.37,2.37,0,0,0,7,201.28a2.43,2.43,0,0,0-1.44.37,1.8,1.8,0,0,0-.66,1,6.53,6.53,0,0,0-.17,1.63v7.46a6.7,6.7,0,0,0,.17,1.65,1.9,1.9,0,0,0,.66,1.1A2.29,2.29,0,0,0,7,214.93Z"/><path class="cls-2" d="M13.72,216.61v-17h3.7a6.41,6.41,0,0,1,3,.58A3.3,3.3,0,0,1,22,201.89a7.55,7.55,0,0,1,.47,2.88V211a8.54,8.54,0,0,1-.47,3.05A3.72,3.72,0,0,1,20.46,216a5.57,5.57,0,0,1-2.85.64Zm2.37-1.7h1.35a2.69,2.69,0,0,0,1.85-.51,2.35,2.35,0,0,0,.66-1.47,19.34,19.34,0,0,0,.12-2.33v-5.53a11.24,11.24,0,0,0-.17-2.15,1.82,1.82,0,0,0-.74-1.2,3.3,3.3,0,0,0-1.78-.37H16.09Z"/><path class="cls-2" d="M24.59,216.61v-17h6.6v1.77H27V207h3.43v1.68H27v6.25h4.27v1.7Z"/><path class="cls-2" d="M37,216.8a4.44,4.44,0,0,1-2.45-.63A4,4,0,0,1,33,214.42a7,7,0,0,1-.59-2.58l2.1-.57a9.87,9.87,0,0,0,.28,1.74,3.15,3.15,0,0,0,.73,1.38,2.11,2.11,0,0,0,2.8,0,2.09,2.09,0,0,0,.48-1.48,3,3,0,0,0-.53-1.86A10,10,0,0,0,37,209.65l-2.86-2.52a4.75,4.75,0,0,1-1.24-1.61,5.11,5.11,0,0,1-.4-2.16,3.86,3.86,0,0,1,1.07-2.9,4.08,4.08,0,0,1,2.92-1,5.33,5.33,0,0,1,1.78.27,3,3,0,0,1,1.28.81,3.94,3.94,0,0,1,.82,1.37,8,8,0,0,1,.41,2l-2,.54a7.87,7.87,0,0,0-.25-1.54,2.39,2.39,0,0,0-.66-1.14,2,2,0,0,0-1.36-.43,1.87,1.87,0,0,0-1.37.48,1.83,1.83,0,0,0-.5,1.39,2.87,2.87,0,0,0,.26,1.29,3.85,3.85,0,0,0,.86,1L38.59,208a9,9,0,0,1,1.7,2,5.05,5.05,0,0,1,.73,2.76,4.32,4.32,0,0,1-.52,2.18,3.5,3.5,0,0,1-1.44,1.39A4.35,4.35,0,0,1,37,216.8Z"/><path class="cls-2" d="M46.68,216.8a4.44,4.44,0,0,1-2.45-.63,4,4,0,0,1-1.48-1.75,7.2,7.2,0,0,1-.59-2.58l2.1-.57a9,9,0,0,0,.29,1.74,3,3,0,0,0,.72,1.38,1.85,1.85,0,0,0,1.41.54,1.83,1.83,0,0,0,1.4-.52,2.14,2.14,0,0,0,.47-1.48,3,3,0,0,0-.52-1.86,10.76,10.76,0,0,0-1.33-1.42l-2.86-2.52a4.88,4.88,0,0,1-1.24-1.61,5.27,5.27,0,0,1-.4-2.16,3.86,3.86,0,0,1,1.07-2.9,4.09,4.09,0,0,1,2.93-1,5.31,5.31,0,0,1,1.77.27,3,3,0,0,1,1.28.81,3.79,3.79,0,0,1,.82,1.37,7.52,7.52,0,0,1,.41,2l-2,.54a8.67,8.67,0,0,0-.26-1.54,2.24,2.24,0,0,0-.66-1.14,2,2,0,0,0-1.35-.43,1.9,1.9,0,0,0-1.38.48,1.83,1.83,0,0,0-.49,1.39,2.75,2.75,0,0,0,.26,1.29,3.79,3.79,0,0,0,.85,1L48.32,208a9,9,0,0,1,1.7,2,5.06,5.06,0,0,1,.74,2.76,4.32,4.32,0,0,1-.53,2.18,3.5,3.5,0,0,1-1.44,1.39A4.35,4.35,0,0,1,46.68,216.8Z"/><path class="cls-2" d="M51.47,216.61l3.62-17h2.29l3.64,17H58.77L58,212.32H54.52l-.82,4.29Zm3.37-6h2.83l-1.43-7.68Z"/><path class="cls-2" d="M67.09,216.61l.32-17h2.33l3,13.81,3-13.81h2.32l.31,17H76.49l-.19-12.36-2.88,12.36H72.07l-2.86-12.36L69,216.61Z"/><path class="cls-2" d="M79.87,216.61l3.62-17h2.29l3.64,17H87.17l-.78-4.29H82.92l-.82,4.29Zm3.37-6h2.83l-1.43-7.68Z"/><path class="cls-2" d="M90.93,216.61v-17h3.43a7.55,7.55,0,0,1,2.81.45,3.11,3.11,0,0,1,1.65,1.45,5.52,5.52,0,0,1,.54,2.62,7.17,7.17,0,0,1-.21,1.8,3.54,3.54,0,0,1-.67,1.36,2.53,2.53,0,0,1-1.22.81l2.41,8.54H97.38l-2.23-8H93.3v8Zm2.37-9.69h.91a4.67,4.67,0,0,0,1.64-.25,1.67,1.67,0,0,0,.92-.87,3.89,3.89,0,0,0,.3-1.7,3.38,3.38,0,0,0-.55-2.15,2.7,2.7,0,0,0-2.16-.67H93.3Z"/><path class="cls-2" d="M101.76,216.61v-17h2.33v17Z"/><path class="cls-2" d="M106.63,216.61v-17h1.62l4.84,11.31V199.58h2v17h-1.51L108.65,205v11.63Z"/><path class="cls-2" d="M117.52,216.61v-17h6.6v1.77H119.9V207h3.42v1.68H119.9v6.25h4.26v1.7Z"/><path class="cls-2" d="M2.56,239.79l.31-17H5.2l3,13.81,3-13.81h2.31l.32,17H12l-.19-12.36L8.88,239.79H7.54L4.68,227.43l-.19,12.36Z"/><path class="cls-2" d="M17.27,239.79l3.62-17h2.29l3.63,17H24.57l-.78-4.29H20.32l-.82,4.29Zm3.36-6h2.84L22,226.13Z"/><path class="cls-2" d="M30.26,239.79v-17h1.62l4.84,11.31V222.76h2v17H37.18l-4.9-11.62v11.62Z"/><path class="cls-2" d="M42.16,239.79l3.62-17h2.29l3.63,17H49.45l-.77-4.29H45.21l-.82,4.29Zm3.36-6h2.84l-1.43-7.67Z"/><path class="cls-2" d="M59.12,240a4.35,4.35,0,0,1-2.55-.68,3.86,3.86,0,0,1-1.39-2,10.24,10.24,0,0,1-.43-3.13v-5.7a11.23,11.23,0,0,1,.39-3.18,3.56,3.56,0,0,1,1.39-2,4.82,4.82,0,0,1,2.78-.69,5.32,5.32,0,0,1,2.58.53,3.19,3.19,0,0,1,1.42,1.64,7.7,7.7,0,0,1,.44,2.79v.63H61.52v-.53a9,9,0,0,0-.15-1.82,1.62,1.62,0,0,0-.6-1.05,2.32,2.32,0,0,0-1.41-.35,2.08,2.08,0,0,0-1.53.49,2.31,2.31,0,0,0-.59,1.31,15.12,15.12,0,0,0-.11,1.88v6.31a9.76,9.76,0,0,0,.18,2,2,2,0,0,0,.68,1.22,2.23,2.23,0,0,0,1.43.4,2.14,2.14,0,0,0,1.43-.44,2.36,2.36,0,0,0,.69-1.31,9.92,9.92,0,0,0,.19-2.14V233H59.57v-1.68h4.31v8.43h-1.5l-.23-2a3.49,3.49,0,0,1-1,1.56A2.93,2.93,0,0,1,59.12,240Z"/><path class="cls-2" d="M68,239.79v-17h6.6v1.77H70.41v5.63h3.43v1.68H70.41v6.25h4.27v1.7Z"/><path class="cls-2" d="M78.28,239.79l.31-17h2.33l3,13.81,3-13.81h2.31l.31,17H87.67l-.19-12.36L84.6,239.79H83.26L80.4,227.43l-.19,12.36Z"/><path class="cls-2" d="M93.91,239.79v-17h6.61v1.77H96.29v5.63h3.43v1.68H96.29v6.25h4.27v1.7Z"/><path class="cls-2" d="M104.19,239.79v-17h1.62l4.84,11.31V222.76h2v17h-1.51l-4.9-11.62v11.62Z"/><path class="cls-2" d="M118.89,239.79V224.53H116v-1.77h8v1.77h-2.8v15.26Z"/></svg>