<svg xmlns="http://www.w3.org/2000/svg" xmlns:xlink="http://www.w3.org/1999/xlink" width="22px" height="22px" viewBox="0 0 22 22"><title>Clip 1143 Copy</title><desc>Created with Sketch.</desc><defs><path d="M37.7482385,100 C40.092561,100 42,101.906805 42,104.251228 L42,104.251228 L42,117.748461 C42,120.092885 40.092561,122 37.7482385,122 L37.7482385,122 L24.2521694,122 C21.907439,122 20,120.092885 20,117.748461 L20,117.748461 L20,104.251228 C20,101.906805 21.907439,100 24.2521694,100 L24.2521694,100 L37.7482385,100 Z M25.4093395,108.753929 L22.1308778,108.753929 L22.1308778,117.761402 C22.1308778,118.924348 23.0741953,119.869054 24.2355466,119.869054 L24.2355466,119.869054 L37.7072425,119.869054 C38.8685938,119.869054 39.8115034,118.924348 39.8115034,117.761402 L39.8115034,117.761402 L39.8115034,108.753929 L36.5333475,108.753929 C36.8158329,109.451821 36.975738,110.213591 36.975738,111.012113 C36.975738,114.328988 34.282541,117.028518 30.9713435,117.028518 C27.6602481,117.028518 24.9666432,114.328988 24.9666432,111.012113 C24.9666432,110.213591 25.1256304,109.451821 25.4093395,108.753929 L25.4093395,108.753929 Z M31.0283505,107.141355 C29.7310595,107.141355 28.5834755,107.782824 27.8769562,108.762005 C27.4167192,109.401299 27.1413725,110.182325 27.1413725,111.029092 C27.1413725,113.172565 28.8850312,114.916207 31.0283505,114.916207 C33.1715679,114.916207 34.9162464,113.172565 34.9162464,111.029092 C34.9162464,110.182325 34.6412056,109.401299 34.1794389,108.762005 C33.4732255,107.782824 32.3255396,107.141355 31.0283505,107.141355 Z M39.4659942,102.533986 L38.9780186,102.535849 L35.7225024,102.546202 L35.735046,106.277506 L39.4659942,106.2656 L39.4659942,102.533986 Z" id="path-1"></path></defs><g id="Page-1" stroke="none" stroke-width="1" fill="none" fill-rule="evenodd"><g id="Site-Yana-320x568-v1" transform="translate(-20.000000, -100.000000)"><mask id="mask-2" fill="white"><use xlink:href="#path-1"></use></mask><use id="Clip-1143-Copy" fill="#ECCB7A" xlink:href="#path-1"></use></g></g></svg>