<?xml version="1.0" encoding="UTF-8"?>
<svg width="22px" height="22px" viewBox="0 0 22 22" version="1.1" xmlns="http://www.w3.org/2000/svg" xmlns:xlink="http://www.w3.org/1999/xlink">
    <!-- Generator: Sketch 61.2 (89653) - https://sketch.com/ -->
    <title>instagram</title>
    <desc>Created with Sketch.</desc>
    <g id="Page-1" stroke="none" stroke-width="1" fill="none" fill-rule="evenodd">
        <g id="Desktop-HD" transform="translate(-857.000000, -386.000000)" fill="#C4B78F" fill-rule="nonzero">
            <g id="instagram" transform="translate(857.000000, 386.000000)">
                <path d="M17.7482385,0 C20.092561,0 22,1.906805 22,4.251228 L22,4.251228 L22,17.748461 C22,20.092885 20.092561,22 17.7482385,22 L17.7482385,22 L4.2521694,22 C1.907439,22 0,20.092885 0,17.748461 L0,17.748461 L0,4.251228 C0,1.906805 1.907439,0 4.2521694,0 L4.2521694,0 L17.7482385,0 Z M5.4093395,8.753929 L2.1308778,8.753929 L2.1308778,17.761402 C2.1308778,18.924348 3.0741953,19.869054 4.2355466,19.869054 L4.2355466,19.869054 L17.7072425,19.869054 C18.8685938,19.869054 19.8115034,18.924348 19.8115034,17.761402 L19.8115034,17.761402 L19.8115034,8.753929 L16.5333475,8.753929 C16.8158329,9.451821 16.975738,10.213591 16.975738,11.012113 C16.975738,14.328988 14.282541,17.028518 10.9713435,17.028518 C7.6602481,17.028518 4.9666432,14.328988 4.9666432,11.012113 C4.9666432,10.213591 5.1256304,9.451821 5.4093395,8.753929 L5.4093395,8.753929 Z M11.0283505,7.141355 C9.7310595,7.141355 8.5834755,7.782824 7.8769562,8.762005 C7.4167192,9.401299 7.1413725,10.182325 7.1413725,11.029092 C7.1413725,13.172565 8.8850312,14.916207 11.0283505,14.916207 C13.1715679,14.916207 14.9162464,13.172565 14.9162464,11.029092 C14.9162464,10.182325 14.6412056,9.401299 14.1794389,8.762005 C13.4732255,7.782824 12.3255396,7.141355 11.0283505,7.141355 Z M19.4659942,2.533986 L18.9780186,2.535849 L15.7225024,2.546202 L15.735046,6.277506 L19.4659942,6.2656 L19.4659942,2.533986 Z" id="path-1"></path>
            </g>
        </g>
    </g>
</svg>