<svg id="Layer_1" data-name="Layer 1" xmlns="http://www.w3.org/2000/svg" viewBox="0 0 97.02 186.41"><defs><style>.cls-1{fill:#c4b78f;}.cls-2{fill:#263755;}.cls-3{fill:#464644;}</style></defs><title>logoOMM</title><path class="cls-1" d="M48.67,26.23h0c-.05-.52-.1-1-.16-1.54a.49.49,0,0,0-.1-.26A2.17,2.17,0,0,1,48,23.16a1.71,1.71,0,0,0-.21-.74,3,3,0,0,1-.19-.53c-.07-.22-.12-.45-.21-.67-.28-.68-.56-1.36-.86-2a1.09,1.09,0,0,0-.32-.44,1.16,1.16,0,0,1-.4-.6A2.15,2.15,0,0,0,45.06,17a1,1,0,0,1-.31-.41,3.32,3.32,0,0,0-.68-1,6.84,6.84,0,0,1-.7-.83,7.43,7.43,0,0,0-1.07-1.17l-.25-.24-1-.91a3.36,3.36,0,0,0-.41-.34.69.69,0,0,0-.73-.08c-.23.12-.2.35-.21.56A6.6,6.6,0,0,0,40,14.4c.08.31.17.62.24.92l.42,1.75a2.24,2.24,0,0,1,.1.37c0,.64,0,1.29,0,1.93,0,.34-.08.67-.11,1-.06.54-.11,1.07-.18,1.61-.09.71-.22,1.41-.27,2.12a4.62,4.62,0,0,1-.41,1.56c-.43,1-.88,1.92-1.32,2.88a1.11,1.11,0,0,0-.09.19.39.39,0,0,0,.42.53,5.2,5.2,0,0,0,.87-.12c.48-.1,1-.24,1.43-.35a1.37,1.37,0,0,1,.45,0,3.92,3.92,0,0,0,2-.18,1,1,0,0,1,.73,0,4.82,4.82,0,0,0,1.93.09h0a1.93,1.93,0,0,1,.86-.07,5.67,5.67,0,0,0,1.09,0c.32,0,.43-.2.45-.52L48.76,27a1.1,1.1,0,0,0,0-.25C48.72,26.55,48.7,26.39,48.67,26.23Z"/><path class="cls-1" d="M38.71,23.92A4,4,0,0,0,39,22.55c.07-1,.12-2.08.2-3.13a6.54,6.54,0,0,0-.06-1.71c-.05-.26-.11-.51-.15-.76a1.63,1.63,0,0,1,0-.49,2.31,2.31,0,0,0-.19-1.13c-.06-.15-.09-.32-.14-.47a1.51,1.51,0,0,0-.1-.3.43.43,0,0,0-.7-.16c-.12.09-.22.21-.33.31a.57.57,0,0,0-.16.61,1,1,0,0,1-.05.69,6.56,6.56,0,0,0-.38,1.31,12,12,0,0,1-.45,1.52,2.38,2.38,0,0,0-.15.5,5.28,5.28,0,0,1-.61,1.72,21,21,0,0,1-1.15,2.33,2.59,2.59,0,0,1-.69.85c-.14.27-.3.52-.46.78a3.29,3.29,0,0,1-.66,1.18.54.54,0,0,1-.37.21l-.42.5a1.68,1.68,0,0,1-.38.82c-.2.23-.44.43-.62.68a7.3,7.3,0,0,0-.68,1.14.58.58,0,0,0,.44.81,1,1,0,0,0,.72,0l.65-.28a1.27,1.27,0,0,1,.32-.13l1.53-.22.34-.07.9-.14v.07c.35,0,.7,0,1.05-.08a.56.56,0,0,0,.35-.2c.26-.47.5-.95.73-1.43.1-.2.15-.42.26-.61a3.68,3.68,0,0,0,.34-.85,2.84,2.84,0,0,1,.46-1.24,1.16,1.16,0,0,0,.25-.64A1.85,1.85,0,0,1,38.71,23.92Z"/><path class="cls-1" d="M22,25.58v0h.11c.36,0,.6-.22.51-.58a1,1,0,0,1,0-.38,1.84,1.84,0,0,0-.06-.84c-.07-.21-.11-.43-.17-.64a.94.94,0,0,1,.05-.66,1.5,1.5,0,0,1,.6-.67,9.59,9.59,0,0,0,1.65-1.12c.06-.07.16-.11.22-.18S25,20,24.7,20a3.89,3.89,0,0,0-1.36,0c-.48.15-1,.28-1.46.41a3.08,3.08,0,0,0-1.95,1.43.82.82,0,0,0-.1.79.5.5,0,0,1-.4.69,1.05,1.05,0,0,1-.72-.07.5.5,0,0,0-.56.06,6.66,6.66,0,0,1-.69.42,2.8,2.8,0,0,0-.5.31,8.72,8.72,0,0,0-1.66,1.77,1.16,1.16,0,0,0-.2.93.58.58,0,0,0,.61.51,1,1,0,0,0,.71-.36c.13-.11.26-.23.4-.33.34-.23.71-.42,1-.67a1.51,1.51,0,0,1,1.07-.37.8.8,0,0,0,.46-.13.92.92,0,0,1,.89-.14C20.82,25.4,21.4,25.48,22,25.58Z"/><path class="cls-1" d="M67.16,16.59l.14,0a2.66,2.66,0,0,1,1.56.87c.14.18.26.36.38.55a1.19,1.19,0,0,1,.08,1.36,1.32,1.32,0,0,0-.1,1.08c.12.46.29.6.77.58a1.61,1.61,0,0,1,.78.13l.28.14a4.22,4.22,0,0,1,2.37,1.31,6.31,6.31,0,0,1,.86.6l.66.53a1.1,1.1,0,0,0,.25.19.44.44,0,0,0,.67-.27.61.61,0,0,0-.06-.54c-.13-.23-.25-.47-.4-.7a3.65,3.65,0,0,0-.49-.72c-.36-.37-.76-.7-1.14-1a2.46,2.46,0,0,0-.27-.17,2.1,2.1,0,0,1-.33-.26,2.87,2.87,0,0,0-.86-.65,1.32,1.32,0,0,1-.75-1.08A2.58,2.58,0,0,0,70.91,17a6.46,6.46,0,0,0-.81-.84A8.24,8.24,0,0,0,67.47,15a1.65,1.65,0,0,0-.31,0l-.46,0-.2,0a.4.4,0,0,0-.31.54C66.33,16.12,66.56,16.55,67.16,16.59Z"/><path class="cls-1" d="M28.88,25.4a.52.52,0,0,0-.17,0,2.83,2.83,0,0,1-.42-.07,1.61,1.61,0,0,0-1.28.24,1.83,1.83,0,0,1-.68.27A.72.72,0,0,0,26,26c-.28.24-.53.49-.79.75a.55.55,0,0,1-.65.09l-.64-.29a.9.9,0,0,0-1,0,1.42,1.42,0,0,1-.41.2,4.29,4.29,0,0,0-1.49.6,2.55,2.55,0,0,0-.76.66.42.42,0,0,0,.08.65.89.89,0,0,0,.9.15,2.48,2.48,0,0,1,.65-.12A3.77,3.77,0,0,1,24,28.54a.88.88,0,0,1,.39.18l.4.1c.13,0,.28.06.48.1s.3-.12.46-.2.25-.18.39-.24a1.42,1.42,0,0,0,.65-.56,4,4,0,0,1,.31-.41.83.83,0,0,1,.13-.16l0,0a2,2,0,0,1,.23-.18,1.56,1.56,0,0,1,.41-.15c.4-.21.75-.51,1.15-.72a.48.48,0,0,0,.31-.51C29.3,25.55,29.09,25.46,28.88,25.4Z"/><path class="cls-1" d="M62.78,21.6c.53.4,1.07.8,1.62,1.18a1.06,1.06,0,0,1,.49.74,1.17,1.17,0,0,0,.13.4.65.65,0,0,0,.64.4,3.93,3.93,0,0,0,.83-.16,1,1,0,0,1,.38-.05,1,1,0,0,1,.89-.15,5.16,5.16,0,0,1,2,1.09l.43.09a.66.66,0,0,0,.65-.19.39.39,0,0,0,.06-.59,3.07,3.07,0,0,0-1-.83l-.79-.4a2.83,2.83,0,0,0-1.42-.42,2.88,2.88,0,0,1-1.53-.48,7.12,7.12,0,0,1-1-.7,4.67,4.67,0,0,0-1.77-.84c-.18-.05-.36-.07-.47-.1-.54,0-.7.27-.47.67A1.1,1.1,0,0,0,62.78,21.6Z"/><path class="cls-1" d="M57.7,79.88c-.09,0-.18.06-.27.09a.52.52,0,0,1-.52-.11,3.77,3.77,0,0,0-.52-.37.67.67,0,0,0-.86.33.3.3,0,0,0,0,.21,3.19,3.19,0,0,1,.33,1.14.82.82,0,0,0,1.31.42,1.29,1.29,0,0,1,.87-.39,2.59,2.59,0,0,1,.55.07.44.44,0,0,0,.56-.44.49.49,0,0,0,0-.15A1.19,1.19,0,0,0,57.7,79.88Z"/><path class="cls-1" d="M55.81,77.83a.42.42,0,0,0,.52,0,.46.46,0,0,0,.26-.53,1.15,1.15,0,0,0-.75-.82,3.57,3.57,0,0,1-1.29-.61,1,1,0,0,0-.63-.2l-.38.06c-.22,0-.3.23-.35.43s.08.31.23.39a1.55,1.55,0,0,1,.52.5,3,3,0,0,0,.27.33.62.62,0,0,0,.87.16.45.45,0,0,1,.55.08Z"/><path class="cls-1" d="M96.65,42.49h.07l-.12-.32A48.5,48.5,0,1,0,97,48.51,49.77,49.77,0,0,0,96.65,42.49ZM13.59,43.64a1.28,1.28,0,0,1-.26.17,2.76,2.76,0,0,0-.92.58,1.61,1.61,0,0,1-.5.31A10.38,10.38,0,0,0,10,45.78a1,1,0,0,0-.2.25c-.12.17-.23.35-.34.52a1.06,1.06,0,0,1-.75.47,3.6,3.6,0,0,0-.83.42.49.49,0,0,0-.18.17,2.29,2.29,0,0,1-1.51.81.57.57,0,0,1-.76-.51,2.57,2.57,0,0,1,0-.73,3.33,3.33,0,0,1,.21-.52,1.24,1.24,0,0,0,0-.76c-.1-.34-.32-.44-.61-.24a2.93,2.93,0,0,0-1,.92,2.1,2.1,0,0,1-.49.5,5.79,5.79,0,0,1-.55.43c-.22.16-.39.09-.42-.18a2.6,2.6,0,0,1,0-.56A.43.43,0,0,1,3,46.41c.28-.11.56-.25.83-.38a3.92,3.92,0,0,0,.94-.83,3.79,3.79,0,0,1,.42-.38.77.77,0,0,1,.39-.11,1.15,1.15,0,0,0,.6-.16,5.17,5.17,0,0,1,.59-.23c.47-.21.94-.42,1.4-.65a1.92,1.92,0,0,1,1.29-.25,4.13,4.13,0,0,0,1.88-.36,1.13,1.13,0,0,1,.37-.1c.24-.05.49-.07.72-.13a3.64,3.64,0,0,1,1.35-.17,1.58,1.58,0,0,0,.51-.12l.69-.23.43-.16c.1,0,.22-.08.26.06s-.05.18-.11.22c-.5.3-1,.59-1.51.9C13.89,43.42,13.74,43.54,13.59,43.64ZM28.31,60.58a2.66,2.66,0,0,0-1,.07c-.47.11-.95.16-1.42.23-.28,0-.56.07-.84.13a.91.91,0,0,0-.37.18q-.72.54-1.41,1.11a1.45,1.45,0,0,0-.48.8,1.42,1.42,0,0,1-.34.61c-.16.18-.3.39-.45.59a1.1,1.1,0,0,1-.2.23l-1,.79-.37.28a.72.72,0,0,1-.83,0,3.11,3.11,0,0,1-.38-.25,1.6,1.6,0,0,0-1.43-.27l-.34.11c-.31.1-.33.13-.32.44s-.06.35-.29.39a.38.38,0,0,1-.48-.24,3.07,3.07,0,0,1-.07-.53h0c0-.22.06-.44.1-.66s.05-.27.08-.41a.63.63,0,0,0-.31-.78,1,1,0,0,1-.29-.3,1.37,1.37,0,0,0-.56-.48.49.49,0,0,1-.27-.34.91.91,0,0,0-.25-.41,1.58,1.58,0,0,1-.51-1.43,1.31,1.31,0,0,0,0-.65c-.1-.26-.05-.35.21-.47a2.12,2.12,0,0,0,.84-.73,1.34,1.34,0,0,0,.16-.45c.05-.18.07-.37.12-.55a1,1,0,0,1,.75-.76c.13,0,.24-.11.36-.15a2.93,2.93,0,0,0,1.55-1.26A4.19,4.19,0,0,1,18.6,55a1.13,1.13,0,0,0,.34-.61A2.49,2.49,0,0,1,19,54a.92.92,0,0,0,0-.59,1,1,0,0,1,0-.69,1.19,1.19,0,0,0,0-.79.66.66,0,0,1,0-.58.55.55,0,0,0,.09-.19.84.84,0,0,1,.59-.75s.06,0,.08-.07l.84-1a1,1,0,0,1,.29-.24,16.46,16.46,0,0,0,1.92-1.1A4.1,4.1,0,0,1,24,47.58a8.62,8.62,0,0,0,1.34-.51,3.18,3.18,0,0,1,1-.3,1.11,1.11,0,0,0,1-.73A1.72,1.72,0,0,1,29,44.9a1.9,1.9,0,0,0,1.3-.74c.09-.09.09-.26.11-.4s0-.24,0-.35a.6.6,0,0,0-.12-.7c-.15-.16,0-.37.2-.39h.17l1.32.21a4.29,4.29,0,0,0,.87.06,4.48,4.48,0,0,1,1.37.1.78.78,0,0,0,.58-.07.64.64,0,0,1,.81.06.44.44,0,0,0,.55,0l.81-.43a.64.64,0,0,0,.34-.33c.07-.14.17-.26.24-.39a1.85,1.85,0,0,0,.16-1.47,3.87,3.87,0,0,0-.59-1.27,1,1,0,0,1-.18-.48.85.85,0,0,0-.37-.58c-.32-.25-.64-.51-1-.75s-.45-.29-.68-.43a1.88,1.88,0,0,1-.23-.16c-.16-.16-.13-.31.07-.42l.41-.2a.83.83,0,0,1,.78-.06,1.71,1.71,0,0,0,.87.09,3.33,3.33,0,0,1,1.53.12,1.5,1.5,0,0,0,.52,0c.12,0,.23-.06.35,0a1.48,1.48,0,0,0,1.17-.68.59.59,0,0,0,.08-.66,2.24,2.24,0,0,1-.16-.5c0-.22,0-.29.26-.33s.43-.11.65-.15l.49,0a6.59,6.59,0,0,0,.77,0,2.67,2.67,0,0,1,1.45.21,1.48,1.48,0,0,0,.78.12,1.43,1.43,0,0,1,.58.08,8.93,8.93,0,0,1,.87.3c.2.08.38.18.57.26a6.5,6.5,0,0,0,.68.28,2,2,0,0,1,.8.57,1.32,1.32,0,0,0,1,.48.44.44,0,0,1,.23.06,2.82,2.82,0,0,1,1.14,1.13,1.09,1.09,0,0,0,.52.58,1.23,1.23,0,0,1,.35.29,5.6,5.6,0,0,1,.45.54,1.83,1.83,0,0,1,.26.5c.07.19,0,.25-.19.28-.37,0-.75.09-1.12.15a.51.51,0,0,0-.49.53,1.52,1.52,0,0,0,.14.89,3.66,3.66,0,0,1,.18.46,2.47,2.47,0,0,0,.23.46c.16.24.14.41-.12.55a1.46,1.46,0,0,1-.37.12c-.36.08-.73.16-1.1.22a.77.77,0,0,0-.66.6.81.81,0,0,0,.17.92,1.13,1.13,0,0,1,.23.34,1.06,1.06,0,0,0,1.58.58c.15-.07.31-.12.46-.18a2.8,2.8,0,0,0,1.46-1.21.66.66,0,0,0,.06-.37,1.41,1.41,0,0,1,.19-.78.82.82,0,0,0,.07-.67,6.56,6.56,0,0,1-.14-.87c0-.07,0-.2.09-.21a.35.35,0,0,1,.24.06.64.64,0,0,1,.29.57.51.51,0,0,0,.23.52.12.12,0,0,1,0,0A2.76,2.76,0,0,1,54,43.18a1.06,1.06,0,0,0,0,.25c.07.61.12,1.23.22,1.84a1.25,1.25,0,0,1-.2,1,.54.54,0,0,0,0,.65c.2.32.18.38-.09.63a.43.43,0,0,0-.11.57,1,1,0,0,1-.1,1.07,2.57,2.57,0,0,0-.43,1.42.44.44,0,0,1-.16.33.47.47,0,0,0-.24.53.32.32,0,0,1,0,.14.33.33,0,0,1-.31.25.27.27,0,0,1-.3-.19,3.59,3.59,0,0,1-.08-.35.74.74,0,0,0-.47-.61l-.42-.18a.63.63,0,0,0-.69.12c-.29.24-.48.2-.69-.12-.06-.09-.11-.18-.16-.27a3,3,0,0,0-.24-.51A6.2,6.2,0,0,0,48,47.92a.75.75,0,0,1-.39-.43.5.5,0,0,0-.08-.12,1.35,1.35,0,0,0-1.59-.08,1.44,1.44,0,0,1-.57.4.21.21,0,0,0-.13.26.92.92,0,0,1-.15.7.9.9,0,0,0-.08.23c0,.19-.08.35-.3.39a.6.6,0,0,1-.6-.2L44,49l-.07-.12a1.24,1.24,0,0,0-2.07-.18A2,2,0,0,0,41.36,50a.94.94,0,0,1-.53.91.36.36,0,0,1-.43,0c-.46-.43-1.11-.48-1.62-.82a.67.67,0,0,0-.3-.1,8.38,8.38,0,0,1-1.89-.56.93.93,0,0,0-.87.05c-.29.16-.6.27-.89.41a.54.54,0,0,1-.48,0,.39.39,0,0,0-.53.12l-.32.42-.36.43a1.12,1.12,0,0,0-.19.29,1.15,1.15,0,0,1-.4.53.55.55,0,0,0-.18.28,7.91,7.91,0,0,1-.74,1.62A5.67,5.67,0,0,0,30.86,55a2.3,2.3,0,0,1-.38.63c-.16.24-.35.47-.5.72a2.16,2.16,0,0,0-.18.56,4.61,4.61,0,0,0-.05,1.85,2.68,2.68,0,0,1-.3,1.57.4.4,0,0,1-.4.24A6.09,6.09,0,0,1,28.31,60.58Zm20.2,35a46.8,46.8,0,0,1-17.36-3.32c.46-.26.93-.49,1.41-.73-.14-.12-.11-.3.07-.4A.35.35,0,0,1,32.8,91a1.2,1.2,0,0,0,.87-.54,1.26,1.26,0,0,1,.4-.32c.29-.15.56-.34.84-.51a1.08,1.08,0,0,1,.29-.13c.55-.11.93-.11,1.12.4a.9.9,0,0,0,.94.65l.57,0c.27,0,.37.17.28.43a.75.75,0,0,1-.06.13c-.13.3-.09.45.19.61a1.11,1.11,0,0,0,.36.13c.43.07.86.15,1.29.18a2.2,2.2,0,0,0,.72-.1,2.84,2.84,0,0,1,2,.13,1.06,1.06,0,0,0,.78.12.86.86,0,0,1,.61.07,3.83,3.83,0,0,0,.43.17,1.09,1.09,0,0,0,.69,0,4.18,4.18,0,0,1,.72-.15,1.35,1.35,0,0,0,.61-.24c.29-.19.6-.36.9-.56a1,1,0,0,0,.3-.32c.19-.3.36-.38.66-.2a7.14,7.14,0,0,0,1.94.74,1.43,1.43,0,0,0,.89,0,1.28,1.28,0,0,1,.55-.06,3.17,3.17,0,0,0,1.93-.43.77.77,0,0,1,.66-.1c.24.08.5.12.75.19a1.38,1.38,0,0,0,1.09-.08s0,0,.06,0c.72-.18.9-.75,1-1.37a.83.83,0,0,1,.07-.27,1.94,1.94,0,0,0,.13-1.14,1,1,0,0,0-.31-.62,8,8,0,0,0-1.46-1.2,1.72,1.72,0,0,0-1.15-.19c-.16,0-.31.2-.45.32s-.22.32-.42.27-.15-.29-.16-.46a.39.39,0,0,0-.06-.19c-.24-.28-.48-.55-.74-.8a3,3,0,0,0-.48-.3,1,1,0,0,1-.59-.84,2.7,2.7,0,0,1,0-.94.5.5,0,0,0,0-.24c-.14-.58-.3-1.16-.43-1.74-.05-.24,0-.49-.06-.73a1.92,1.92,0,0,0-.08-.55,5.56,5.56,0,0,1-.33-1.61.72.72,0,0,1,0-.25,2.74,2.74,0,0,0-.17-1.47.83.83,0,0,1-.06-.44,1,1,0,0,0-.09-.68.84.84,0,0,1-.09-.62,1.25,1.25,0,0,0-.1-.68,8.68,8.68,0,0,1-.48-2.26s0-.08,0-.11c-.22-.45-.08-.95-.22-1.41s-.21-.92-.31-1.37a2.65,2.65,0,0,1,0-.38,5.61,5.61,0,0,0-.06-.59.7.7,0,0,1,.26-.79,1.42,1.42,0,0,0,.63-1.08A2.62,2.62,0,0,1,50,66.1a1,1,0,0,0,0-.35,7,7,0,0,0-.21-1.13,1.08,1.08,0,0,0-.41-.51.74.74,0,0,1-.35-.89,4.07,4.07,0,0,0,0-1.15,1.52,1.52,0,0,0,0-.21c0-.22,0-.29.24-.37a1,1,0,0,0,.56-1.39c-.15-.32-.32-.65-.47-1a.66.66,0,0,1-.09-.33.68.68,0,0,0-.28-.54c-.48-.44-.94-.91-1.42-1.36a8.7,8.7,0,0,0-.8-.68.59.59,0,0,1-.29-.38.66.66,0,0,0-.52-.62,12.78,12.78,0,0,0-1.79,1.38l-.63.77c-.09.12-.18.23-.28.34l-.82.95a7.94,7.94,0,0,0-.85,1.15c-.15.24-.28.49-.42.73a1.79,1.79,0,0,0,0,.23.67.67,0,0,0,.5.58,3,3,0,0,1,.58.24c.24.15.26.26.19.53a1.21,1.21,0,0,0-.06.31A3.2,3.2,0,0,1,41.83,64a7.3,7.3,0,0,0-.5,1,.44.44,0,0,0,.06.49.62.62,0,0,1,.09.6.79.79,0,0,0,.16.83c.16.19.33.4.5.58a.62.62,0,0,1,.16.61c-.11.59-.18,1.18-.27,1.78a2,2,0,0,1-.08.41,2.26,2.26,0,0,0-.17.85,2,2,0,0,1-.14.68,1.87,1.87,0,0,0-.14,1,1.15,1.15,0,0,1,0,.49,12.73,12.73,0,0,0-.42,2.53c0,.22-.08.44-.12.66s-.09.5-.14.75a4.41,4.41,0,0,1-.16.65.84.84,0,0,0,0,.71,1,1,0,0,1,0,.38c0,.31,0,.63-.1.94a2,2,0,0,1-.13.55,1.09,1.09,0,0,0,0,.85,1,1,0,0,1,0,.76,4.35,4.35,0,0,0-.18.71.64.64,0,0,0,.08.36.51.51,0,0,1,0,.62A1.92,1.92,0,0,0,40,85c0,.34,0,.37-.3.5a1.86,1.86,0,0,0-.46.31c-.2.19-.36.4-.56.59s-.33.22-.56.05a3.06,3.06,0,0,1-.57-.51.87.87,0,0,0-.57-.28c-.54-.1-1,.23-1.49.28-.15,0-.29.09-.44.11a.84.84,0,0,0-.7.45,2.56,2.56,0,0,1-.61.62c-.38.31-.77.61-1.16.91,0,0-.11,0-.14.1-.35.47-.91.64-1.34,1a.33.33,0,0,1-.41.09c-.15-.08-.16-.22-.14-.4a1.57,1.57,0,0,0,0-.77.7.7,0,0,1,.08-.39,2.23,2.23,0,0,1,.2-.33.66.66,0,0,0,0-.79.67.67,0,0,1-.11-.4,1.4,1.4,0,0,0-.41-1c-.08-.09-.14-.19-.21-.28a1.06,1.06,0,0,1-.24-.86.73.73,0,0,0-.15-.69.4.4,0,0,1-.09-.22c-.09-.37-.17-.73-.25-1.1,0-.22-.06-.44-.09-.66v0a14.35,14.35,0,0,1-.18-1.45,1.81,1.81,0,0,1,0-.52.73.73,0,0,0-.1-.63c-.06-.08-.1-.17-.15-.25a.32.32,0,0,1,0-.42,1.63,1.63,0,0,0,.37-1.48,3.14,3.14,0,0,1,.14-1.14c.11-.41.22-.82.35-1.22s.36-1.06.56-1.59a.84.84,0,0,0,.06-.64.48.48,0,0,1,.05-.33c.15-.3.33-.59.49-.89a4.56,4.56,0,0,1,.8-1.15.85.85,0,0,0,.29-.69.33.33,0,0,1,.05-.24,3.81,3.81,0,0,1,.59-.78,7.28,7.28,0,0,0,1.22-1.26,2.45,2.45,0,0,1,.36-.36,20.36,20.36,0,0,1,3.2-3.74c2.55-3.62,5.69-8.26,9.84-9.7l.55-.45a.55.55,0,0,1,.46-.13c.21,0,.42,0,.63,0a4.52,4.52,0,0,1,.9.11h.58a4.35,4.35,0,0,0,1.29.21h0l.19.12.52.39-.2-.37.67.21a.85.85,0,0,1,.37.29,5.22,5.22,0,0,0,.39-.43.62.62,0,0,0,.15-.34,1.13,1.13,0,0,1,.25-.65,3.83,3.83,0,0,0,.57-1.23,9.74,9.74,0,0,0,.49-1.91.53.53,0,0,0,0-.24,1.82,1.82,0,0,1,.13-.95,2.8,2.8,0,0,0,.08-1.32,1.67,1.67,0,0,1,0-.59,4.81,4.81,0,0,0,.06-1.65,2.16,2.16,0,0,0-.18-.56,1,1,0,0,1-.17-.66.6.6,0,0,0-.12-.39,1.78,1.78,0,0,1-.37-1,2.68,2.68,0,0,0-.35-1.1c-.1-.2-.18-.43-.27-.64l-.15-.36-.36-.76a1.73,1.73,0,0,0-.2-.32c-.24-.29-.48-.58-.73-.86l-.06-.08a4,4,0,0,1-1-1.14,3.3,3.3,0,0,0-.75-.63c-.25-.21-.51-.42-.77-.61a3.27,3.27,0,0,0-.58-.39c-.56-.27-1.13-.52-1.69-.8a1.37,1.37,0,0,0-.63-.16,1.51,1.51,0,0,1-.87-.34s0-.08-.08-.12a.84.84,0,0,1,.59-.29,1.65,1.65,0,0,0,.92-.39.68.68,0,0,1,.4-.12.42.42,0,0,0,.42-.25.59.59,0,0,1,.39-.27A1.65,1.65,0,0,0,50,30.2a.5.5,0,0,0-.43-.59,2,2,0,0,0-.35,0,6.25,6.25,0,0,1-.87-.09,2,2,0,0,0-.9.05c-.54.14-1.1.23-1.65.34a.69.69,0,0,1-.32,0,6.19,6.19,0,0,0-1.61-.06,1.08,1.08,0,0,0-.63.18,1.17,1.17,0,0,1-.77.19,1.6,1.6,0,0,0-.89.17,1.2,1.2,0,0,1-.72.11l-.59-.07a2.64,2.64,0,0,0-1.08.1,2.14,2.14,0,0,1-.76.07,3.91,3.91,0,0,0-.83.09c-.6.11-1.21.17-1.81.25l-1,.11-1.05.07a3.56,3.56,0,0,0-.65.13,3.75,3.75,0,0,1-1.49.22.61.61,0,0,0-.53.21,2.85,2.85,0,0,1-.32.27c-.12.09-.14.18,0,.29s.43.43.67.62a2.09,2.09,0,0,0,.49.26c.3.16.6.31.89.48a.38.38,0,0,1,.13.26c0,.06-.13.12-.21.15a2.29,2.29,0,0,1-.62.13,3.12,3.12,0,0,0-1,.22A2,2,0,0,1,30,34.5c-.1,0-.24.07-.35.12a6.86,6.86,0,0,1-.83.38,1.77,1.77,0,0,1-.65,0,1.13,1.13,0,0,0-.65.11c-.4.21-.82.4-1.24.57a3.22,3.22,0,0,1-.69.12c-.23,0-.47,0-.7.09a.49.49,0,0,0-.33.18,1.15,1.15,0,0,1-.56.38c-.71.29-1.4.6-2.1.9a.82.82,0,0,1-.26.1,4.71,4.71,0,0,0-1.18.34,2.39,2.39,0,0,0-.83.45,1.87,1.87,0,0,1-.47.23c-.38.18-.77.33-1.15.52a4,4,0,0,1-1.22.32c-.38,0-.76.12-1.14.18l-.35.05a8,8,0,0,1-.84.08A6.31,6.31,0,0,0,13,40a2.34,2.34,0,0,0-.58.27,1.39,1.39,0,0,1-.66.18,2.46,2.46,0,0,0-1,.23A2.44,2.44,0,0,1,9.5,41,.81.81,0,0,0,9,41.1a4,4,0,0,1-.74.31,3.86,3.86,0,0,1-.59.12.47.47,0,0,1-.63-.35,2.89,2.89,0,0,1-.11-.51c0-.12,0-.23,0-.35,0-.45-.16-.6-.61-.48-.12,0-.24.09-.37.12a.59.59,0,0,0-.33.29c-.19.35-.4.69-.59,1a1.11,1.11,0,0,0-.14.5.73.73,0,0,1-.33.62,2.59,2.59,0,0,1-.93.49,1.93,1.93,0,0,0-.49.32A2.09,2.09,0,0,1,3.09,43a1.49,1.49,0,0,1-.54.25l-.81.19A47,47,0,0,1,91,28.23l-.09.09a.45.45,0,0,1-.23.25,6.33,6.33,0,0,0-.94.66c-.73.61-1.5,1.17-2.29,1.71-.59.4-1.14.87-1.71,1.3a2.14,2.14,0,0,1-.32.2,6.09,6.09,0,0,0-1.34,1,12.43,12.43,0,0,1-1.21,1c-.45.33-.91.64-1.37,1-.28.21-.57.41-.85.63l-1.47,1.15c-.1.08-.22.13-.32.21s-.37.28-.55.42-.39.34-.6.49a7.49,7.49,0,0,1-1.36.94,1.13,1.13,0,0,0-.35.34,1.59,1.59,0,0,1-.61.45,3.67,3.67,0,0,0-1.14.76,3,3,0,0,1-.55.44,12.16,12.16,0,0,1-1.37,1,5.21,5.21,0,0,0-.81.61c-.3.23-.59.47-.9.67a8.35,8.35,0,0,1-1.59,1,.42.42,0,0,0-.18.11,10.63,10.63,0,0,0-.87.77,9.2,9.2,0,0,1-1.85,1.44,2.69,2.69,0,0,0-.41.33,2.56,2.56,0,0,1-1,.73.38.38,0,0,0-.15.09,2.78,2.78,0,0,1-.57.51,18.71,18.71,0,0,1-2,1.52,1.74,1.74,0,0,0-.29.25,1.45,1.45,0,0,1-.26.24,2.22,2.22,0,0,0-.77.69,4.24,4.24,0,0,1-.73.6,3.74,3.74,0,0,0-.77.66,4.8,4.8,0,0,1-.76.67,6.41,6.41,0,0,0-1.2,1.24,8.31,8.31,0,0,1-.89.89l-.93.94a2.09,2.09,0,0,1-.14.17L54,57.34c-.06.06-.14.1-.19.16a8.16,8.16,0,0,1-1.1,1c-.21.21-.41.43-.6.65s-.12.31.1.42a.73.73,0,0,0,.61,0l.85-.33a.33.33,0,0,0,.15-.1c.26-.28.51-.58.76-.87a4.93,4.93,0,0,1,.39-.4c.41-.37.83-.72,1.25-1.09a.91.91,0,0,0,.21-.23,4,4,0,0,1,1.09-1.09,2.05,2.05,0,0,0,.39-.44,2.79,2.79,0,0,1,.51-.52A6.73,6.73,0,0,0,60,53.23a.32.32,0,0,1,.1-.1A9.29,9.29,0,0,0,61.3,52a5.13,5.13,0,0,1,.65-.47,1.65,1.65,0,0,0,.58-.5.49.49,0,0,1,.16-.19c.63-.37,1.07-1,1.79-1.28a.91.91,0,0,0,.34-.25,9,9,0,0,1,1.16-1,13.24,13.24,0,0,0,1.93-1.41,6.66,6.66,0,0,1,.77-.61c.25-.21.49-.43.75-.64a2.91,2.91,0,0,1,.42-.25,1.89,1.89,0,0,0,.48-.28,6.15,6.15,0,0,1,1.25-.91c.2-.13.39-.29.59-.44l.49-.34.47-.35a2.19,2.19,0,0,1,.45-.32,4.14,4.14,0,0,0,1.33-1,1.14,1.14,0,0,1,.32-.26,4.32,4.32,0,0,0,1.21-.95,3.27,3.27,0,0,1,1.06-.74,2.74,2.74,0,0,0,.55-.43c.17-.14.33-.3.51-.42A10.22,10.22,0,0,0,79.78,38c.57-.49,1.19-.92,1.78-1.38.25-.19.49-.4.74-.6s.41-.31.62-.45.44-.27.65-.42c.49-.32,1-.66,1.45-1,.17-.13.32-.28.48-.41l.44-.34.82-.61L88,31.88a1.08,1.08,0,0,0,.18-.11A4.44,4.44,0,0,1,89.28,31a1.11,1.11,0,0,0,.33-.35.75.75,0,0,1,.44-.27,1,1,0,0,0,.42-.22c.24-.2.47-.43.73-.67a2.09,2.09,0,0,0,.2.22,1.29,1.29,0,0,1,.17-.16A46.71,46.71,0,0,1,95,41.35l-.05,0-.19.07a1,1,0,0,1-.56.61c-.58.27-1.12.65-1.69.94a4.64,4.64,0,0,1-1,.38,4.79,4.79,0,0,0-1.32.55c-.18.11-.39.17-.58.27a9.57,9.57,0,0,1-1.87.7.51.51,0,0,0-.25.1,4.8,4.8,0,0,1-1.4.73,8.93,8.93,0,0,1-.87.3.92.92,0,0,0-.28.14,3.29,3.29,0,0,1-.93.48c-.27.13-.51.28-.77.42a8.86,8.86,0,0,1-.82.4A23.29,23.29,0,0,0,80,48.56a7.68,7.68,0,0,1-.88.35c-.76.31-1.53.6-2.27.94s-1.38.7-2.07,1l-.66.33a9.78,9.78,0,0,1-1.28.57c-.82.24-1.59.62-2.39.93-.14.06-.29.08-.43.13a1.49,1.49,0,0,0-.3.09,6.5,6.5,0,0,1-1.4.56,8,8,0,0,0-1,.46.77.77,0,0,1-.16.07,5.4,5.4,0,0,0-1.38.69c-.18.1-.38.18-.56.28a3.29,3.29,0,0,0-.52.29,2.06,2.06,0,0,1-1.08.54h0l-1.46.75c-.15.07-.29.16-.43.23l-.78.34c-.11,0-.24.07-.36.11l-.52.2-.06,0a6.72,6.72,0,0,0-1.09.39,14,14,0,0,0-1.87.69c-.39.19-.77.41-1.16.59a2.17,2.17,0,0,1-.59.2,2.1,2.1,0,0,0-1.19.47,2.22,2.22,0,0,1-.93.47,5.43,5.43,0,0,0-1.56.87c-.29.19-.3.39-.07.68s.1.23,0,.35c-.35.32-.32.46.11.68a1.16,1.16,0,0,1,.4.33,1.12,1.12,0,0,0,.64.4c.31.07.6.18.91.27a3,3,0,0,0,.58.11,4.39,4.39,0,0,1,1.34.28c.32.11.66.15,1,.23a3.63,3.63,0,0,1,.54.15,2.9,2.9,0,0,0,1,.26,2.1,2.1,0,0,1,.55.13,3,3,0,0,0,1,.22,9.06,9.06,0,0,1,.91.13l1,.17a1.78,1.78,0,0,1,.52.1,8.22,8.22,0,0,0,2.08.45c.15,0,.3.06.44.11a2.12,2.12,0,0,0,.93.15.37.37,0,0,1,.18,0,1.58,1.58,0,0,0,1,0,.8.8,0,0,1,.48,0,2.15,2.15,0,0,0,.87.11,13.38,13.38,0,0,1,2.28.09l1.33.13a5.21,5.21,0,0,1,2,.56,6.7,6.7,0,0,0,.92.34,2,2,0,0,1,.47.23,5.87,5.87,0,0,0,2,.81,1.8,1.8,0,0,1,.81.39.45.45,0,0,0,.52.12.94.94,0,0,1,.55,0c.46.11.92.18,1.38.28a3.36,3.36,0,0,1,.64.18.61.61,0,0,0,.57,0,.86.86,0,0,1,1,.09,2.06,2.06,0,0,0,.61.25l1.55.34a.86.86,0,0,0,.27,0,2.09,2.09,0,0,1,1,.2,1.32,1.32,0,0,0,.48.09,5.35,5.35,0,0,1,1.9.33,1.68,1.68,0,0,0,.24.07c.18.06.44,0,.46.32v.07a3.93,3.93,0,0,1,.48.06A47.07,47.07,0,0,1,48.51,95.55ZM34.63,88c.07,0,.13,0,.27.11a1.78,1.78,0,0,1-.26.17.16.16,0,0,1-.15-.1C34.45,88.11,34.52,88,34.63,88Zm.88-.45a6.42,6.42,0,0,1,.42-.6.5.5,0,0,1,.84,0,8.21,8.21,0,0,0,.59.59c.2.2.42.38.61.59a1.74,1.74,0,0,0,.62.45.53.53,0,0,1,.25.26.65.65,0,0,1,0,.39.29.29,0,0,1-.38.09,2.33,2.33,0,0,1-1-.4.59.59,0,0,0-.59-.1,4.64,4.64,0,0,1-.46.09c0-.08-.07-.11-.06-.14,0-.43-.24-.63-.59-.78l-.09,0C35.33,87.89,35.32,87.85,35.51,87.59ZM45.83,62.26a1,1,0,0,0-.06.61c.08.54-.23.81-.75.66-.25-.08-.51-.17-.76-.27a.58.58,0,0,1-.37-.44c0-.2-.09-.41-.14-.61a.75.75,0,0,1,.9-1,2.61,2.61,0,0,0,.44-.1.6.6,0,0,1,.68.12.73.73,0,0,1,.15.78Zm.06,3.34a.26.26,0,0,1-.2.3,1.43,1.43,0,0,1-.89-.09.32.32,0,0,1-.14-.25c0-.08.12-.17.21-.2a1.84,1.84,0,0,1,.41,0h0l.36,0A.25.25,0,0,1,45.89,65.6Zm-2-.25a.46.46,0,0,1,.26.25.27.27,0,0,1-.31.35l-.76-.11-.14,0c-.23-.07-.35-.22-.32-.4s.17-.24.54-.24C43.31,65.21,43.6,65.26,43.87,65.35Zm.29,24.29a1.47,1.47,0,0,1,.58.12,1.83,1.83,0,0,0,1.24.1.57.57,0,0,1,.57.09,3.42,3.42,0,0,1-.37.44,1.76,1.76,0,0,1-1.74.58,1.1,1.1,0,0,0-.31,0,.9.9,0,0,1-.64-.26,1,1,0,0,0-.6-.26.9.9,0,0,1-.36-.12.17.17,0,0,1,0-.32C43.11,89.85,43.63,89.72,44.16,89.64ZM47.84,62.4c0,.17,0,.4,0,.64a.34.34,0,0,1-.38.4.34.34,0,0,1-.39-.39,6.63,6.63,0,0,0,0-1.26,1.17,1.17,0,0,1,.16-.6.24.24,0,0,1,.46,0,2,2,0,0,1,.12.5c0,.11,0,.21,0,.32S47.83,62.23,47.84,62.4Zm-.44,2.78v0a4,4,0,0,1,.49,0c.08,0,.2.06.22.12a.31.31,0,0,1-.06.28.58.58,0,0,1-.35.19,4.73,4.73,0,0,1-.84,0c-.27,0-.41-.15-.4-.31s.16-.29.41-.31S47.22,65.18,47.4,65.18Zm1.7,24.26a.31.31,0,0,1,.37-.12,1.69,1.69,0,0,1,.44.12,1.16,1.16,0,0,0,.86,0c.37-.12.74-.23,1.1-.36a1.32,1.32,0,0,1,.92,0,4.73,4.73,0,0,0,1,.15A.25.25,0,0,0,54,89.2a5.21,5.21,0,0,0,.52-.41,1.37,1.37,0,0,0,.26-.37c.2-.34.38-.39.72-.19a1.17,1.17,0,0,1,.26.17,2.11,2.11,0,0,1,.18.27,6.15,6.15,0,0,1-.23.85.55.55,0,0,1-.78.23,6.14,6.14,0,0,0-.63-.31.6.6,0,0,0-.53.08l-1.17.64a.6.6,0,0,1-.61,0,1.23,1.23,0,0,0-1.45.09.6.6,0,0,1-.83,0c-.16-.13-.34-.25-.49-.39A.35.35,0,0,1,49.1,89.44ZM90.4,69.91l-.15,0a.66.66,0,0,1-.47.11,12.39,12.39,0,0,0-1.72-.31,2.47,2.47,0,0,1-.65-.16,4.26,4.26,0,0,0-1.17-.23,2.62,2.62,0,0,1-.54-.12,3.73,3.73,0,0,0-.78-.2,7.71,7.71,0,0,1-1.66-.3c-.26-.05-.53-.06-.8-.09a2.53,2.53,0,0,1-.28,0c-.79-.15-1.57-.29-2.35-.46s-1.59-.33-2.37-.54a4.27,4.27,0,0,1-1-.41,2.09,2.09,0,0,0-.93-.28,1.33,1.33,0,0,1-.87-.33,1.19,1.19,0,0,0-.44-.21l-1.55-.44-.41-.1c-.23,0-.46-.11-.69-.13q-.73-.09-1.47-.15c-.15,0-.31,0-.45,0a3.91,3.91,0,0,0-1.23-.07q-.73,0-1.47,0a.91.91,0,0,1-.4-.1.71.71,0,0,0-.55-.06,1,1,0,0,1-.58,0,6,6,0,0,0-.82-.18,12.75,12.75,0,0,1-2.23-.32,15.09,15.09,0,0,1-2-.64.93.93,0,0,0-.41-.07,2.28,2.28,0,0,1-1.06-.2,1.86,1.86,0,0,0-.48-.09,7.37,7.37,0,0,1-.79-.16,3.59,3.59,0,0,0-1.3-.26,1.35,1.35,0,0,1-.34-.06l-1-.24L54.88,63v-.09a3.18,3.18,0,0,1,.9-.25,2.41,2.41,0,0,0,1-.27,1.55,1.55,0,0,1,.74-.14,3.3,3.3,0,0,0,.93-.16,1.86,1.86,0,0,1,.61-.1,2.24,2.24,0,0,0,.52,0l.73-.13a10.15,10.15,0,0,1,1.45-.22c.09,0,.17-.08.26-.11a2,2,0,0,1,.4-.1A7.44,7.44,0,0,0,64,61.14c.41-.1.84-.13,1.25-.21a3,3,0,0,0,.67-.19,1.54,1.54,0,0,1,.82-.15,1.84,1.84,0,0,0,.52-.05c.35-.06.71-.17,1.07-.21a2.07,2.07,0,0,0,.93-.29.69.69,0,0,1,.59-.12.66.66,0,0,0,.28,0c.29,0,.58-.08.87-.09a5.26,5.26,0,0,0,1-.13c.74-.15,1.48-.26,2.22-.37a3.47,3.47,0,0,0,1-.28,2.24,2.24,0,0,1,.58-.14c.54-.06,1.09-.1,1.63-.19s.88-.24,1.32-.35a14.77,14.77,0,0,1,1.48-.26,6.72,6.72,0,0,0,1.66-.29,1.46,1.46,0,0,1,.48-.1l.8-.07h0a1.92,1.92,0,0,0,1.18-.17c.4-.11.8-.19,1.2-.28.12,0,.23-.05.35-.06A2.21,2.21,0,0,0,87,56.83a.49.49,0,0,1,.27-.06,7.74,7.74,0,0,0,2.53-.4A5.27,5.27,0,0,1,91,56.1c.35,0,.71-.1,1.07-.14s.75-.16,1.13-.23l1.29-.21c.26,0,.35,0,.39.12l.15,0A46.5,46.5,0,0,1,90.4,69.91Zm4.81-15.74-.27-.05c0,.22-.13.32-.41.4a1.68,1.68,0,0,1-.45.06,4.27,4.27,0,0,0-1.46.17c-.21.07-.43.09-.65.15a7.13,7.13,0,0,0-1.51.32.49.49,0,0,1-.24,0,14.88,14.88,0,0,0-2.4.32,4.21,4.21,0,0,0-.61.16c-.18,0-.37.07-.55.11a2.65,2.65,0,0,0-.57.15,1.25,1.25,0,0,1-.78.15,1.92,1.92,0,0,0-1,.13.37.37,0,0,1-.17,0l-2.16.3c-.18,0-.37,0-.56.07l-1.67.4a.36.36,0,0,1-.17,0,2.25,2.25,0,0,0-1,.17.85.85,0,0,1-.31.06,6.69,6.69,0,0,0-1.93.34l-.1,0c-.64,0-1.23.27-1.87.25a1.75,1.75,0,0,0-.54.12,3.61,3.61,0,0,1-1.42.21,1.11,1.11,0,0,0-.47.08,3.25,3.25,0,0,1-.58.14,2.92,2.92,0,0,0-1,.23l-.27.08c-.67.14-1.33.29-2,.42s-1.08.17-1.62.26a1.91,1.91,0,0,0-.41.11,2.9,2.9,0,0,1-1,.21,5.4,5.4,0,0,0-.89.18,5,5,0,0,1-1.28.22,2.75,2.75,0,0,0-.75.13,3.28,3.28,0,0,1-1.49.17,1.14,1.14,0,0,0-.94.17.48.48,0,0,1-.48,0,.72.72,0,0,0-.54,0,6.88,6.88,0,0,1-.87.3,5.2,5.2,0,0,1-.69.07c-.27,0-.54,0-.8.07-.52.09-1,.2-1.55.3l-.18,0L53,62a3.26,3.26,0,0,0-.38.18.52.52,0,0,1-.69-.1.33.33,0,0,1,.36-.27,3,3,0,0,0,1.31-.48c.41-.21.85-.33,1.27-.5A8.92,8.92,0,0,0,56.5,60a3.46,3.46,0,0,1,1.77-.62,1.4,1.4,0,0,0,.6-.18c.47-.27.94-.52,1.42-.77a.7.7,0,0,1,.23-.08,5.58,5.58,0,0,0,1.95-.67,6.32,6.32,0,0,0,.65-.27c.63-.34,1.25-.69,1.87-1l1.06-.55a3.42,3.42,0,0,0,.46-.26,7.32,7.32,0,0,1,1.55-.73,3,3,0,0,0,.32-.12A8.46,8.46,0,0,1,70.22,54c.68-.22,1.34-.5,2-.75a2.55,2.55,0,0,1,.29-.13,10.53,10.53,0,0,0,2.14-1c.22-.11.46-.17.68-.27a1.87,1.87,0,0,0,.48-.27,2.83,2.83,0,0,1,1.39-.8,3,3,0,0,0,.42-.16l.53-.19a1.43,1.43,0,0,0,.28-.13,1.14,1.14,0,0,1,.68-.25,1.38,1.38,0,0,0,.77-.31,6,6,0,0,1,1.39-.68c.67-.28,1.32-.59,2-.89a1.08,1.08,0,0,1,.19-.08,2.88,2.88,0,0,0,1.14-.52,6.68,6.68,0,0,1,1.46-.67,4.56,4.56,0,0,0,1.4-.64,3.69,3.69,0,0,1,.62-.33c.14-.07.29-.11.42-.19a2,2,0,0,1,1-.39.7.7,0,0,0,.3-.17.72.72,0,0,1,.6-.23.62.62,0,0,0,.55-.24.58.58,0,0,1,.32-.2,4.29,4.29,0,0,0,1.15-.42l1.61-.62a2.66,2.66,0,0,0,.71-.27.33.33,0,0,1,.29,0,.32.32,0,0,1,.09.23l.11,0a45.4,45.4,0,0,1,.28,5.11A48.06,48.06,0,0,1,95.21,54.17Z"/><path class="cls-1" d="M46.31,44.87c.32.14.64.28,1,.4a.45.45,0,0,0,.27-.05,1,1,0,0,0,.44-1c-.07-.4-.19-.52-.65-.61L47,43.56c-.18.06-.4.11-.6.19a.55.55,0,0,0-.24,1C46.2,44.78,46.25,44.85,46.31,44.87Z"/><path class="cls-1" d="M36.6,77a1.2,1.2,0,0,0-.89-.09,5.83,5.83,0,0,0-.7.25,1.35,1.35,0,0,1-.95.12,3.1,3.1,0,0,0-.39-.06,1.39,1.39,0,0,0-.92.27c-.14.14-.29.27-.44.4a.29.29,0,0,0-.09.4.49.49,0,0,0,.75.25,1,1,0,0,1,1,0l.31.16a.66.66,0,0,0,.82-.1,3.1,3.1,0,0,1,1.45-.87.37.37,0,0,0,.3-.35A.43.43,0,0,0,36.6,77Z"/><path class="cls-1" d="M32.41,74.86a.59.59,0,0,0,.29.52,8.32,8.32,0,0,0,.93.5.68.68,0,0,0,1-.38c.15-.29.12-.39-.13-.6a13.55,13.55,0,0,1-1.57-1.36c-.1-.12-.29-.16-.44-.24a7,7,0,0,0-.8.23.41.41,0,0,0-.29.44.55.55,0,0,0,.39.45.78.78,0,0,0,.21,0C32.37,74.5,32.39,74.51,32.41,74.86Z"/><path class="cls-1" d="M88.59,41.91a3.16,3.16,0,0,0,2.47-1,3.88,3.88,0,0,0,.87-2.7,3.89,3.89,0,0,0-.87-2.71,3.15,3.15,0,0,0-2.46-1,3.2,3.2,0,0,0-2.48.94,3.9,3.9,0,0,0-.87,2.72A4,4,0,0,0,86.11,41,3.18,3.18,0,0,0,88.59,41.91ZM87,36.25a1.87,1.87,0,0,1,1.58-.68,1.85,1.85,0,0,1,1.57.68,3.26,3.26,0,0,1,.52,2,3.22,3.22,0,0,1-.53,2,2.16,2.16,0,0,1-3.14,0,3.15,3.15,0,0,1-.53-2A3.13,3.13,0,0,1,87,36.25Z"/><path class="cls-1" d="M89.93,52.17h0l-1.49-4.81H86.6v6.29h1.19V50.72c0-.33,0-1-.08-2h0l1.52,4.93h1.22l1.62-4.93h0c0,.8,0,1.28-.06,1.47v3.46h1.24V47.36H91.5Z"/><path class="cls-1" d="M86.66,64.79h0L85.15,60H83.33v6.29h1.2V63.34c0-.33,0-1-.09-2h0L86,66.27h1.22l1.62-4.93h0c0,.8,0,1.28-.06,1.47v3.46h1.24V60H88.24Z"/><path class="cls-2" d="M3.25,146.1Q.44,142.64.44,135.94V120.5c0-4.47.94-7.82,2.81-10.08s5-3.37,9.41-3.37,7.49,1.13,9.39,3.4,2.83,5.62,2.83,10V136q0,6.65-2.83,10.1c-1.9,2.3-5,3.45-9.39,3.45S5.13,148.4,3.25,146.1Zm12.3-4a9.07,9.07,0,0,0,.74-4V118.45a8.7,8.7,0,0,0-.74-4,3,3,0,0,0-2.89-1.41,3,3,0,0,0-2.89,1.41,8.7,8.7,0,0,0-.74,4V138a9.16,9.16,0,0,0,.72,4c.47,1,1.44,1.43,2.91,1.43A2.93,2.93,0,0,0,15.55,142.06Z"/><path class="cls-2" d="M50.18,107.83h10.7V149H52.65V123.18h-.3L48.12,149H41.53L37.3,123.18H37V149H28.78V107.83h10.7l5.35,28.93Z"/><path class="cls-2" d="M85.92,107.83h10.7V149H88.39V123.18h-.3L83.86,149H77.28L73,123.18h-.29V149H64.52V107.83h10.7l5.35,28.93Z"/><path class="cls-3" d="M5.4,168.39a3.83,3.83,0,0,1-2.14-.52,2.84,2.84,0,0,1-1.14-1.5,6.73,6.73,0,0,1-.35-2.27v-5a6.46,6.46,0,0,1,.35-2.24,2.81,2.81,0,0,1,1.15-1.44,4,4,0,0,1,2.13-.5,3.84,3.84,0,0,1,2.12.51,2.86,2.86,0,0,1,1.13,1.44A6.17,6.17,0,0,1,9,159.08v5a6.5,6.5,0,0,1-.36,2.26,2.94,2.94,0,0,1-1.13,1.49A3.76,3.76,0,0,1,5.4,168.39Zm0-1.45a1.75,1.75,0,0,0,1.11-.3,1.5,1.5,0,0,0,.5-.85,5.51,5.51,0,0,0,.13-1.29v-5.79A5.28,5.28,0,0,0,7,157.44a1.36,1.36,0,0,0-.5-.81,1.82,1.82,0,0,0-1.11-.29,1.85,1.85,0,0,0-1.12.29,1.39,1.39,0,0,0-.52.81,5.84,5.84,0,0,0-.13,1.27v5.79a6.11,6.11,0,0,0,.13,1.29,1.52,1.52,0,0,0,.52.85A1.78,1.78,0,0,0,5.4,166.94Z"/><path class="cls-3" d="M10.65,168.24V155h2.88a5.08,5.08,0,0,1,2.33.45,2.57,2.57,0,0,1,1.22,1.34,6.06,6.06,0,0,1,.37,2.24v4.87a6.76,6.76,0,0,1-.37,2.36,2.82,2.82,0,0,1-1.19,1.47,4.28,4.28,0,0,1-2.21.49Zm1.85-1.32h1a2.1,2.1,0,0,0,1.44-.39,1.79,1.79,0,0,0,.52-1.14,15.64,15.64,0,0,0,.09-1.82v-4.29a9.26,9.26,0,0,0-.13-1.67,1.41,1.41,0,0,0-.58-.93,2.58,2.58,0,0,0-1.38-.29h-1Z"/><path class="cls-3" d="M19.1,168.24V155h5.12v1.37H20.94v4.37H23.6v1.31H20.94v4.85h3.32v1.32Z"/><path class="cls-3" d="M28.7,168.39a3.43,3.43,0,0,1-1.91-.49,3.16,3.16,0,0,1-1.15-1.35,5.6,5.6,0,0,1-.45-2l1.63-.44a6.68,6.68,0,0,0,.22,1.35,2.38,2.38,0,0,0,.56,1.07,1.43,1.43,0,0,0,1.1.42,1.4,1.4,0,0,0,1.08-.4,1.62,1.62,0,0,0,.37-1.15,2.4,2.4,0,0,0-.41-1.45,7.37,7.37,0,0,0-1-1.1l-2.22-2a3.85,3.85,0,0,1-1-1.25,4,4,0,0,1-.31-1.67,3,3,0,0,1,.83-2.26,3.16,3.16,0,0,1,2.27-.8,4.17,4.17,0,0,1,1.38.21,2.31,2.31,0,0,1,1,.63,3,3,0,0,1,.63,1.07,5.73,5.73,0,0,1,.32,1.51l-1.57.42a6.15,6.15,0,0,0-.19-1.2,1.77,1.77,0,0,0-.52-.88,1.76,1.76,0,0,0-2.12,0,1.47,1.47,0,0,0-.38,1.09,2.21,2.21,0,0,0,.2,1,3.07,3.07,0,0,0,.66.8l2.24,2a7.17,7.17,0,0,1,1.32,1.56,4,4,0,0,1,.57,2.15,3.35,3.35,0,0,1-.4,1.69A2.83,2.83,0,0,1,30.34,168,3.48,3.48,0,0,1,28.7,168.39Z"/><path class="cls-3" d="M36.26,168.39a3.43,3.43,0,0,1-1.91-.49,3.16,3.16,0,0,1-1.15-1.35,5.6,5.6,0,0,1-.45-2l1.63-.44a7.46,7.46,0,0,0,.22,1.35,2.38,2.38,0,0,0,.56,1.07,1.43,1.43,0,0,0,1.1.42,1.4,1.4,0,0,0,1.08-.4,1.62,1.62,0,0,0,.37-1.15,2.4,2.4,0,0,0-.41-1.45,7.37,7.37,0,0,0-1-1.1l-2.22-2a3.85,3.85,0,0,1-1-1.25,4,4,0,0,1-.31-1.67,3,3,0,0,1,.83-2.26,3.16,3.16,0,0,1,2.27-.8,4.17,4.17,0,0,1,1.38.21,2.31,2.31,0,0,1,1,.63,3,3,0,0,1,.63,1.07,5.73,5.73,0,0,1,.32,1.51l-1.57.42a6.15,6.15,0,0,0-.19-1.2,1.77,1.77,0,0,0-.52-.88,1.76,1.76,0,0,0-2.12,0,1.47,1.47,0,0,0-.38,1.09,2.21,2.21,0,0,0,.2,1,3.07,3.07,0,0,0,.66.8l2.24,2a7.17,7.17,0,0,1,1.32,1.56,4,4,0,0,1,.57,2.15,3.35,3.35,0,0,1-.4,1.69A2.83,2.83,0,0,1,37.9,168,3.48,3.48,0,0,1,36.26,168.39Z"/><path class="cls-3" d="M40,168.24,42.79,155h1.78l2.82,13.22H45.65L45,164.91H42.35l-.64,3.33Zm2.61-4.65H44.8l-1.11-6Z"/><path class="cls-3" d="M52.11,168.24,52.36,155h1.81l2.33,10.73L58.85,155h1.8l.24,13.22H59.41l-.15-9.6L57,168.24H56l-2.22-9.6-.15,9.6Z"/><path class="cls-3" d="M62,168.24,64.85,155h1.78l2.82,13.22H67.7l-.6-3.33H64.41l-.64,3.33Zm2.61-4.65h2.2l-1.11-6Z"/><path class="cls-3" d="M70.63,168.24V155h2.66a6,6,0,0,1,2.19.35,2.45,2.45,0,0,1,1.28,1.13,4.35,4.35,0,0,1,.41,2,5.42,5.42,0,0,1-.16,1.39,2.74,2.74,0,0,1-.52,1.07,2.1,2.1,0,0,1-.95.62l1.88,6.63H75.64L73.91,162H72.47v6.2Zm1.84-7.52h.7a3.51,3.51,0,0,0,1.28-.2,1.35,1.35,0,0,0,.72-.67,3.15,3.15,0,0,0,.22-1.32,2.69,2.69,0,0,0-.42-1.68,2.13,2.13,0,0,0-1.68-.51h-.82Z"/><path class="cls-3" d="M79,168.24V155h1.82v13.22Z"/><path class="cls-3" d="M82.82,168.24V155h1.26l3.76,8.78V155h1.53v13.22H88.19l-3.8-9v9Z"/><path class="cls-3" d="M91.28,168.24V155h5.13v1.37H93.13v4.37h2.66v1.31H93.13v4.85h3.31v1.32Z"/><path class="cls-3" d="M2,186.25,2.23,173H4l2.34,10.73L8.73,173h1.79l.25,13.23H9.28l-.14-9.6-2.24,9.6H5.85l-2.22-9.6-.14,9.6Z"/><path class="cls-3" d="M13.41,186.25,16.22,173H18l2.83,13.23H19.08l-.6-3.33h-2.7l-.63,3.33ZM16,181.6h2.2l-1.11-6Z"/><path class="cls-3" d="M23.51,186.25V173h1.25l3.76,8.79V173h1.53v13.23H28.88l-3.81-9v9Z"/><path class="cls-3" d="M32.75,186.25,35.55,173h1.78l2.83,13.23H38.41l-.6-3.33h-2.7l-.63,3.33Zm2.61-4.65h2.2l-1.11-6Z"/><path class="cls-3" d="M45.92,186.41a3.29,3.29,0,0,1-2-.53,2.93,2.93,0,0,1-1.08-1.54,7.93,7.93,0,0,1-.33-2.43v-4.43a8.83,8.83,0,0,1,.3-2.47,2.78,2.78,0,0,1,1.08-1.56,3.71,3.71,0,0,1,2.16-.54,4.13,4.13,0,0,1,2,.42,2.38,2.38,0,0,1,1.1,1.27,5.83,5.83,0,0,1,.34,2.16v.49H47.78v-.41a6.94,6.94,0,0,0-.11-1.41,1.32,1.32,0,0,0-.47-.81,1.8,1.8,0,0,0-1.1-.27,1.59,1.59,0,0,0-1.18.37,1.73,1.73,0,0,0-.46,1,10.68,10.68,0,0,0-.09,1.46v4.9a7.88,7.88,0,0,0,.14,1.59,1.56,1.56,0,0,0,.53.94,1.73,1.73,0,0,0,1.11.31,1.62,1.62,0,0,0,1.11-.34,1.86,1.86,0,0,0,.54-1,7.81,7.81,0,0,0,.15-1.67V181H46.27V179.7h3.34v6.55H48.45l-.18-1.52a2.76,2.76,0,0,1-.81,1.21A2.32,2.32,0,0,1,45.92,186.41Z"/><path class="cls-3" d="M52.85,186.25V173H58v1.37H54.69v4.38h2.66v1.31H54.69v4.85H58v1.32Z"/><path class="cls-3" d="M60.8,186.25,61,173h1.81l2.34,10.73L67.54,173h1.8l.24,13.23H68.1l-.15-9.6-2.24,9.6h-1l-2.22-9.6-.15,9.6Z"/><path class="cls-3" d="M72.94,186.25V173h5.13v1.37H74.79v4.38h2.66v1.31H74.79v4.85H78.1v1.32Z"/><path class="cls-3" d="M80.93,186.25V173h1.26l3.75,8.79V173h1.54v13.23H86.3l-3.8-9v9Z"/><path class="cls-3" d="M92.34,186.25V174.39H90.11V173h6.25v1.37H94.19v11.86Z"/></svg>