<svg id="Layer_1" data-name="Layer 1" xmlns="http://www.w3.org/2000/svg" viewBox="0 0 185.95 80.9"><defs><style>.cls-1{fill:#c4b78f;}.cls-2{fill:#464644;}.cls-3{fill:#263755;}</style></defs><title>logoOMM</title><path class="cls-1" d="M40.59,21.87h0c0-.43-.08-.86-.13-1.28a.43.43,0,0,0-.09-.22A1.72,1.72,0,0,1,40,19.31a1.44,1.44,0,0,0-.18-.61,2.6,2.6,0,0,1-.16-.44c-.06-.19-.1-.38-.17-.56-.24-.57-.47-1.14-.72-1.71a1,1,0,0,0-.27-.37,1,1,0,0,1-.34-.49,1.75,1.75,0,0,0-.63-.93,1,1,0,0,1-.26-.34,2.72,2.72,0,0,0-.56-.82,5.52,5.52,0,0,1-.59-.69,5.49,5.49,0,0,0-.89-1l-.21-.21-.81-.76a3,3,0,0,0-.34-.28.57.57,0,0,0-.61-.06c-.19.1-.17.29-.18.46A5.26,5.26,0,0,0,33.35,12l.2.77c.11.48.23,1,.34,1.45a2.12,2.12,0,0,1,.09.31c0,.54,0,1.08,0,1.61,0,.28-.07.56-.1.84,0,.45-.09.9-.15,1.35s-.18,1.17-.22,1.77a3.91,3.91,0,0,1-.34,1.3c-.36.8-.74,1.6-1.1,2.39A1.3,1.3,0,0,0,32,24a.33.33,0,0,0,.35.44,6.09,6.09,0,0,0,.73-.1L34.28,24a1.22,1.22,0,0,1,.38,0,3.27,3.27,0,0,0,1.67-.14.8.8,0,0,1,.61,0,4,4,0,0,0,1.61.07h0a1.59,1.59,0,0,1,.72-.05,5.53,5.53,0,0,0,.91,0c.26,0,.36-.17.38-.44s0-.62.07-.93a1.23,1.23,0,0,0,0-.2C40.63,22.14,40.61,22,40.59,21.87Z"/><path class="cls-1" d="M32.27,20a3.24,3.24,0,0,0,.24-1.15c.06-.86.1-1.73.17-2.6a5.26,5.26,0,0,0,0-1.43c0-.22-.09-.43-.13-.64a1.36,1.36,0,0,1,0-.4,1.93,1.93,0,0,0-.16-1c0-.12-.07-.26-.11-.39a1.83,1.83,0,0,0-.08-.25.36.36,0,0,0-.59-.13,3.31,3.31,0,0,0-.27.26.45.45,0,0,0-.14.51.75.75,0,0,1,0,.57,5.13,5.13,0,0,0-.31,1.1,11.38,11.38,0,0,1-.38,1.26,2,2,0,0,0-.13.42,4.3,4.3,0,0,1-.51,1.43,17.48,17.48,0,0,1-1,1.94,2,2,0,0,1-.57.71c-.12.22-.25.44-.38.65a2.66,2.66,0,0,1-.56,1A.39.39,0,0,1,27,22l-.34.42a1.39,1.39,0,0,1-.32.68,6.72,6.72,0,0,0-.51.57,5.09,5.09,0,0,0-.57.95.48.48,0,0,0,.36.68.91.91,0,0,0,.61,0l.53-.24A1.53,1.53,0,0,1,27,25l1.28-.18.28-.06.75-.12v.06c.29,0,.58,0,.87-.06a.45.45,0,0,0,.3-.17c.22-.39.41-.79.61-1.2.08-.16.12-.34.21-.5a2.69,2.69,0,0,0,.28-.71A2.4,2.4,0,0,1,32,21a1,1,0,0,0,.2-.54A2.1,2.1,0,0,1,32.27,20Z"/><path class="cls-1" d="M18.31,21.33v0h.09c.31,0,.5-.19.43-.49a.69.69,0,0,1,0-.32,1.46,1.46,0,0,0-.05-.69c-.06-.18-.09-.36-.14-.54a.75.75,0,0,1,0-.55,1.23,1.23,0,0,1,.5-.56,7.09,7.09,0,0,0,1.37-.94,1.33,1.33,0,0,0,.19-.14c.15-.17.09-.4-.13-.42a2.92,2.92,0,0,0-1.14,0c-.4.12-.81.23-1.22.33a2.56,2.56,0,0,0-1.62,1.2.67.67,0,0,0-.09.66.42.42,0,0,1-.33.57.78.78,0,0,1-.6-.06.39.39,0,0,0-.46.06,5.51,5.51,0,0,1-.58.34,3,3,0,0,0-.42.26,7.46,7.46,0,0,0-1.38,1.48,1,1,0,0,0-.17.77.48.48,0,0,0,.51.43.89.89,0,0,0,.59-.3c.11-.09.22-.19.34-.27.28-.2.58-.36.85-.57a1.33,1.33,0,0,1,.9-.31.62.62,0,0,0,.38-.1.76.76,0,0,1,.74-.12C17.36,21.18,17.84,21.25,18.31,21.33Z"/><path class="cls-1" d="M56,13.84l.11,0a2.28,2.28,0,0,1,1.31.72l.32.46a1,1,0,0,1,.06,1.13,1.1,1.1,0,0,0-.08.9c.1.39.24.51.64.49a1.36,1.36,0,0,1,.66.11l.22.11a3.47,3.47,0,0,1,2,1.1,4.89,4.89,0,0,1,.72.5c.18.15.36.3.55.44a1.06,1.06,0,0,0,.21.16.37.37,0,0,0,.56-.22.51.51,0,0,0-.06-.45c-.11-.2-.21-.4-.32-.59a3.73,3.73,0,0,0-.41-.6c-.3-.31-.64-.58-1-.87-.06-.05-.15-.09-.22-.14a1.93,1.93,0,0,1-.28-.22,2.27,2.27,0,0,0-.72-.54,1.1,1.1,0,0,1-.62-.9,2.12,2.12,0,0,0-.55-1.27,5.41,5.41,0,0,0-.66-.69,6.76,6.76,0,0,0-2.2-1,2.06,2.06,0,0,0-.26,0l-.38,0-.17,0a.33.33,0,0,0-.26.45C55.31,13.44,55.5,13.8,56,13.84Z"/><path class="cls-1" d="M24.08,21.18l-.14,0c-.12,0-.24,0-.35-.05a1.31,1.31,0,0,0-1.07.2,1.78,1.78,0,0,1-.57.22.77.77,0,0,0-.3.15L21,22.3a.44.44,0,0,1-.54.08l-.53-.24a.76.76,0,0,0-.81,0,1.09,1.09,0,0,1-.34.17,3.72,3.72,0,0,0-1.24.5,2.13,2.13,0,0,0-.64.55.35.35,0,0,0,.07.54.75.75,0,0,0,.75.13,2.07,2.07,0,0,1,.55-.11A3.22,3.22,0,0,1,20,23.8a.71.71,0,0,1,.33.15l.33.09c.11,0,.23,0,.4.07a3.52,3.52,0,0,0,.38-.16c.11-.06.21-.15.32-.2a1.2,1.2,0,0,0,.55-.47,2.78,2.78,0,0,1,.26-.34,1.13,1.13,0,0,1,.1-.13l0,0,.19-.15a1.21,1.21,0,0,1,.35-.12c.33-.18.62-.43.95-.61a.39.39,0,0,0,.26-.42C24.44,21.3,24.26,21.23,24.08,21.18Z"/><path class="cls-1" d="M52.35,18q.66.51,1.35,1a.87.87,0,0,1,.41.61,1,1,0,0,0,.11.33.52.52,0,0,0,.53.34,2.64,2.64,0,0,0,.69-.14.89.89,0,0,1,.32,0A.84.84,0,0,1,56.5,20a4.34,4.34,0,0,1,1.69.91l.35.08a.62.62,0,0,0,.55-.16.34.34,0,0,0,0-.5,2.73,2.73,0,0,0-.86-.69c-.23-.1-.44-.23-.66-.33a2.44,2.44,0,0,0-1.19-.36,2.4,2.4,0,0,1-1.27-.39,5.68,5.68,0,0,1-.8-.59,4.07,4.07,0,0,0-1.47-.7c-.15,0-.31-.06-.4-.08-.45,0-.58.22-.39.56A.84.84,0,0,0,52.35,18Z"/><path class="cls-1" d="M48.11,66.61l-.22.07a.44.44,0,0,1-.44-.09,3.36,3.36,0,0,0-.43-.31.56.56,0,0,0-.72.28.25.25,0,0,0,0,.17,2.82,2.82,0,0,1,.28,1,.68.68,0,0,0,1.09.35,1,1,0,0,1,.73-.32,1.74,1.74,0,0,1,.45.06.37.37,0,0,0,.47-.37s0-.08,0-.12A1,1,0,0,0,48.11,66.61Z"/><path class="cls-1" d="M46.54,64.9a.35.35,0,0,0,.43,0,.37.37,0,0,0,.21-.44.89.89,0,0,0-.62-.68,3.2,3.2,0,0,1-1.07-.51.84.84,0,0,0-.53-.17,1.67,1.67,0,0,0-.31,0c-.19,0-.26.19-.3.36s.07.26.19.32a1.26,1.26,0,0,1,.44.42,2,2,0,0,0,.22.27.52.52,0,0,0,.73.14.38.38,0,0,1,.46.07Z"/><path class="cls-1" d="M80.59,35.43h.06c0-.09-.06-.18-.1-.27a40.45,40.45,0,1,0,.35,5.31A41.64,41.64,0,0,0,80.59,35.43Zm-69.26,1a1,1,0,0,1-.22.14,2.51,2.51,0,0,0-.76.48,1.41,1.41,0,0,1-.42.26,8.53,8.53,0,0,0-1.58.91c-.07,0-.11.13-.16.2s-.19.29-.29.44a.91.91,0,0,1-.62.39,2.7,2.7,0,0,0-.7.35.49.49,0,0,0-.15.14,1.81,1.81,0,0,1-1.25.67A.48.48,0,0,1,4.54,40a2.1,2.1,0,0,1,0-.61,2.26,2.26,0,0,1,.17-.43.94.94,0,0,0,0-.64c-.08-.28-.26-.36-.5-.19a2.27,2.27,0,0,0-.84.76,1.76,1.76,0,0,1-.4.42,5.19,5.19,0,0,1-.46.36c-.18.13-.33.07-.35-.16a1.78,1.78,0,0,1,0-.46.34.34,0,0,1,.24-.3c.24-.09.47-.21.7-.31a3.72,3.72,0,0,0,.78-.7,2,2,0,0,1,.35-.31.6.6,0,0,1,.32-.1,1,1,0,0,0,.5-.13c.16-.08.33-.12.49-.2.39-.17.79-.35,1.17-.54a1.6,1.6,0,0,1,1.08-.2,3.43,3.43,0,0,0,1.56-.3.85.85,0,0,1,.31-.09c.2,0,.41-.06.6-.11a3.34,3.34,0,0,1,1.13-.14,1.27,1.27,0,0,0,.42-.09l.58-.2.36-.13c.08,0,.18-.07.22.05s-.05.14-.1.18l-1.25.75C11.58,36.21,11.46,36.3,11.33,36.39ZM23.61,50.51a2.21,2.21,0,0,0-.81.06c-.39.09-.79.13-1.19.19-.23,0-.46.06-.69.11a.94.94,0,0,0-.32.15c-.39.3-.79.61-1.17.93a1.19,1.19,0,0,0-.4.67,1.18,1.18,0,0,1-.28.5c-.14.16-.25.33-.38.49a1.06,1.06,0,0,1-.17.2l-.86.66a3.55,3.55,0,0,1-.31.23.58.58,0,0,1-.69,0A3.37,3.37,0,0,1,16,54.5a1.33,1.33,0,0,0-1.2-.22l-.28.08c-.26.09-.28.12-.27.38s0,.29-.24.32a.31.31,0,0,1-.4-.21,2.79,2.79,0,0,1-.06-.43h0l.09-.54c0-.12,0-.23.07-.35a.55.55,0,0,0-.26-.65.82.82,0,0,1-.24-.25,1.21,1.21,0,0,0-.47-.4.37.37,0,0,1-.22-.28,1,1,0,0,0-.21-.34,1.31,1.31,0,0,1-.43-1.19,1.27,1.27,0,0,0,0-.55c-.08-.21,0-.29.17-.39a1.75,1.75,0,0,0,.71-.61,1.35,1.35,0,0,0,.13-.37c0-.15.06-.31.1-.46a.83.83,0,0,1,.62-.64,2.68,2.68,0,0,0,.3-.12,2.41,2.41,0,0,0,1.3-1.05,2.24,2.24,0,0,1,.32-.37,1,1,0,0,0,.28-.51,1.57,1.57,0,0,1,.08-.31.75.75,0,0,0,0-.49.83.83,0,0,1,0-.58,1,1,0,0,0,0-.66.54.54,0,0,1,0-.48c0-.06.06-.11.07-.16a.7.7,0,0,1,.49-.63.13.13,0,0,0,.07-.06c.23-.26.46-.53.7-.78a.79.79,0,0,1,.24-.21,14,14,0,0,0,1.6-.91,3.55,3.55,0,0,1,1-.4,6.38,6.38,0,0,0,1.13-.42A2.84,2.84,0,0,1,22,39a.93.93,0,0,0,.83-.61,1.41,1.41,0,0,1,1.32-1,1.58,1.58,0,0,0,1.09-.62.7.7,0,0,0,.09-.33c0-.09,0-.2,0-.29a.5.5,0,0,0-.1-.58c-.13-.14,0-.31.16-.34h.15c.36.06.73.13,1.1.18a3.48,3.48,0,0,0,.72,0,3.62,3.62,0,0,1,1.14.09.66.66,0,0,0,.48-.06.54.54,0,0,1,.68.05.36.36,0,0,0,.46,0l.68-.35a.61.61,0,0,0,.28-.29c.05-.11.14-.21.2-.32a1.53,1.53,0,0,0,.13-1.22A3.1,3.1,0,0,0,31,32.38a.81.81,0,0,1-.15-.41.73.73,0,0,0-.3-.48c-.28-.2-.54-.42-.82-.62s-.37-.24-.56-.36a1.56,1.56,0,0,1-.19-.13A.2.2,0,0,1,29,30l.35-.16a.67.67,0,0,1,.64-.05,1.4,1.4,0,0,0,.73.07A3,3,0,0,1,32,30a1.29,1.29,0,0,0,.44,0,2.93,2.93,0,0,1,.29-.05,1.22,1.22,0,0,0,1-.57.5.5,0,0,0,.07-.55,2,2,0,0,1-.14-.41c0-.19,0-.24.22-.28l.54-.12a2.73,2.73,0,0,1,.41,0c.21,0,.43,0,.64,0a2.29,2.29,0,0,1,1.21.18,1.31,1.31,0,0,0,.65.1,1.38,1.38,0,0,1,.49.06c.24.07.48.16.72.25l.48.22a3.93,3.93,0,0,0,.56.24,1.66,1.66,0,0,1,.66.47,1.13,1.13,0,0,0,.85.4.41.41,0,0,1,.19.05,2.32,2.32,0,0,1,.95.94,1,1,0,0,0,.44.49,1.32,1.32,0,0,1,.29.24c.13.15.26.29.38.45a2.27,2.27,0,0,1,.21.41c.05.16,0,.21-.16.24s-.62.07-.93.12a.42.42,0,0,0-.41.45,1.19,1.19,0,0,0,.12.74c.07.12.09.26.15.38a2.81,2.81,0,0,0,.19.39c.13.2.11.34-.1.45a1.15,1.15,0,0,1-.31.11c-.3.07-.61.13-.92.18a.65.65,0,0,0-.55.5.67.67,0,0,0,.14.76.77.77,0,0,1,.19.29.89.89,0,0,0,1.33.48c.12-.06.25-.1.38-.15a2.31,2.31,0,0,0,1.21-1,.62.62,0,0,0,.06-.31,1.09,1.09,0,0,1,.16-.64.75.75,0,0,0,0-.57,4.32,4.32,0,0,1-.11-.72.21.21,0,0,1,.06-.17.26.26,0,0,1,.21,0,.51.51,0,0,1,.24.47.44.44,0,0,0,.19.44s0,0,0,0a2.13,2.13,0,0,1,.31,1c0,.07,0,.13,0,.2.06.51.11,1,.19,1.54a1,1,0,0,1-.17.84.44.44,0,0,0,0,.53c.16.27.15.32-.08.53a.36.36,0,0,0-.09.48.81.81,0,0,1-.08.88,2.11,2.11,0,0,0-.36,1.19.36.36,0,0,1-.14.27.43.43,0,0,0-.2.45.24.24,0,0,1,0,.12.3.3,0,0,1-.26.21.24.24,0,0,1-.25-.17,1.43,1.43,0,0,1-.07-.28.61.61,0,0,0-.39-.51c-.12,0-.23-.11-.35-.15a.52.52,0,0,0-.57.09c-.25.21-.41.17-.58-.09l-.13-.23a2.44,2.44,0,0,0-.21-.43A5.07,5.07,0,0,0,40,40a.69.69,0,0,1-.33-.36.21.21,0,0,0-.06-.1,1.11,1.11,0,0,0-1.32-.06,1.33,1.33,0,0,1-.48.33.16.16,0,0,0-.11.21.76.76,0,0,1-.12.59.49.49,0,0,0-.07.19c0,.15-.07.29-.25.32a.49.49,0,0,1-.5-.16.86.86,0,0,0-.07-.1.54.54,0,0,1-.05-.11,1,1,0,0,0-1.73-.14,1.64,1.64,0,0,0-.4,1.14.82.82,0,0,1-.45.76.29.29,0,0,1-.35,0c-.39-.36-.93-.4-1.35-.68a.49.49,0,0,0-.25-.08,6.69,6.69,0,0,1-1.58-.47.79.79,0,0,0-.73,0c-.23.13-.49.23-.74.34a.41.41,0,0,1-.4,0,.31.31,0,0,0-.44.11l-.27.34c-.09.12-.2.24-.29.37a1,1,0,0,0-.17.24.91.91,0,0,1-.32.43.49.49,0,0,0-.16.24,6.94,6.94,0,0,1-.62,1.36,4.83,4.83,0,0,0-.64,1.21,2,2,0,0,1-.31.52c-.14.21-.3.39-.42.61a1.46,1.46,0,0,0-.15.46,3.86,3.86,0,0,0,0,1.55,2.26,2.26,0,0,1-.25,1.3.35.35,0,0,1-.33.21C24,50.52,23.81,50.53,23.61,50.51ZM40.45,79.68A39.15,39.15,0,0,1,26,76.91c.39-.22.78-.41,1.18-.61-.12-.1-.09-.25.06-.34l.14,0a1,1,0,0,0,.72-.44.89.89,0,0,1,.34-.27c.24-.13.47-.29.7-.43a1.28,1.28,0,0,1,.24-.11c.46-.09.78-.09.93.34a.78.78,0,0,0,.79.54,3.7,3.7,0,0,1,.47,0c.23,0,.31.14.24.35a.54.54,0,0,1-.05.11c-.11.25-.08.38.15.51a1.15,1.15,0,0,0,.31.11,9.5,9.5,0,0,0,1.07.15,2,2,0,0,0,.6-.08,2.32,2.32,0,0,1,1.66.11.92.92,0,0,0,.65.09.75.75,0,0,1,.51.06c.12.06.24.1.36.15a.93.93,0,0,0,.57,0,3.19,3.19,0,0,1,.6-.12,1.14,1.14,0,0,0,.51-.2c.25-.16.51-.3.75-.46a.92.92,0,0,0,.25-.27c.16-.26.3-.32.56-.17a6,6,0,0,0,1.61.62,1.2,1.2,0,0,0,.75,0,1,1,0,0,1,.46,0,2.62,2.62,0,0,0,1.6-.36.67.67,0,0,1,.55-.08c.2.07.42.1.63.16a1.2,1.2,0,0,0,.91-.07l.05,0c.6-.14.75-.62.85-1.14a.79.79,0,0,1,.05-.22,1.56,1.56,0,0,0,.11-1,.88.88,0,0,0-.25-.52,6.5,6.5,0,0,0-1.22-1,1.47,1.47,0,0,0-1-.16c-.14,0-.26.17-.37.27s-.19.27-.36.22-.12-.24-.13-.38a.43.43,0,0,0-.05-.16c-.2-.23-.4-.46-.62-.67a2.23,2.23,0,0,0-.4-.24.89.89,0,0,1-.49-.71,2.27,2.27,0,0,1,0-.78.46.46,0,0,0,0-.2c-.12-.48-.25-1-.36-1.45,0-.2,0-.41,0-.61a1.2,1.2,0,0,0-.07-.46,5.16,5.16,0,0,1-.28-1.34,1.49,1.49,0,0,1,0-.21,2.17,2.17,0,0,0-.14-1.23.64.64,0,0,1-.05-.36.85.85,0,0,0-.07-.57.7.7,0,0,1-.08-.51,1.12,1.12,0,0,0-.08-.57,7.59,7.59,0,0,1-.41-1.89.27.27,0,0,0,0-.09c-.18-.37-.07-.79-.18-1.18S41,58.18,41,57.8a1.64,1.64,0,0,1-.05-.32,2.72,2.72,0,0,0,0-.49.58.58,0,0,1,.22-.65,1.21,1.21,0,0,0,.53-.91c0-.1,0-.21.07-.31a1,1,0,0,0,0-.29,6.12,6.12,0,0,0-.18-.95.82.82,0,0,0-.34-.42.61.61,0,0,1-.29-.74,3.45,3.45,0,0,0,0-1l0-.18c0-.18,0-.24.2-.31a.81.81,0,0,0,.47-1.15c-.13-.27-.27-.54-.4-.82a.58.58,0,0,1-.07-.28.57.57,0,0,0-.23-.45l-1.19-1.13a7.45,7.45,0,0,0-.67-.57.48.48,0,0,1-.23-.31.57.57,0,0,0-.44-.52,9.43,9.43,0,0,0-1.49,1.15l-.53.64c-.07.1-.15.19-.23.29l-.69.79a6.46,6.46,0,0,0-.7,1l-.35.61a1.34,1.34,0,0,0,0,.2.57.57,0,0,0,.42.48,2.22,2.22,0,0,1,.48.2c.2.12.22.22.16.44a.8.8,0,0,0,0,.26,2.6,2.6,0,0,1-.44,1.32,5.49,5.49,0,0,0-.42.84.39.39,0,0,0,0,.41.51.51,0,0,1,.08.5.67.67,0,0,0,.13.69c.14.16.27.33.42.49a.52.52,0,0,1,.13.51c-.09.48-.15,1-.22,1.47a1.7,1.7,0,0,1-.07.34,1.78,1.78,0,0,0-.14.72,1.52,1.52,0,0,1-.12.56,1.48,1.48,0,0,0-.11.8,1.11,1.11,0,0,1,0,.41,10.81,10.81,0,0,0-.35,2.11c0,.19-.07.37-.1.55L34,64.4a3.27,3.27,0,0,1-.13.54.76.76,0,0,0,0,.59.69.69,0,0,1,0,.32c0,.26,0,.52-.08.78a3.1,3.1,0,0,1-.11.46.88.88,0,0,0,0,.71.81.81,0,0,1,0,.63,3.1,3.1,0,0,0-.15.6.55.55,0,0,0,.07.3.44.44,0,0,1,0,.52,1.54,1.54,0,0,0-.23,1c0,.28,0,.31-.25.42a1.42,1.42,0,0,0-.38.26c-.17.15-.3.33-.47.49s-.27.18-.47,0a2.73,2.73,0,0,1-.47-.43.78.78,0,0,0-.47-.23c-.46-.08-.83.19-1.25.23-.12,0-.24.08-.37.1a.69.69,0,0,0-.58.37,1.8,1.8,0,0,1-.51.52c-.31.26-.64.51-1,.76,0,0-.1,0-.12.08-.29.39-.76.54-1.12.84a.27.27,0,0,1-.34.08c-.12-.07-.13-.19-.12-.34a1.24,1.24,0,0,0,0-.63.6.6,0,0,1,.06-.34c0-.09.12-.18.17-.27a.53.53,0,0,0,0-.65.65.65,0,0,1-.1-.34,1.14,1.14,0,0,0-.33-.82c-.07-.07-.12-.16-.18-.23a.89.89,0,0,1-.2-.72.6.6,0,0,0-.13-.57.36.36,0,0,1-.07-.19l-.21-.91c0-.18,0-.37-.08-.55,0,0,0,0,0,0a8.33,8.33,0,0,1-.15-1.21,1.24,1.24,0,0,1,0-.43.65.65,0,0,0-.09-.53c-.05-.07-.08-.14-.12-.2a.26.26,0,0,1,0-.35,1.38,1.38,0,0,0,.31-1.24,2.54,2.54,0,0,1,.12-1c.09-.34.18-.68.29-1s.3-.89.47-1.32a.72.72,0,0,0,.05-.54.37.37,0,0,1,0-.27c.13-.25.28-.5.42-.74a3.78,3.78,0,0,1,.66-1,.68.68,0,0,0,.24-.57.42.42,0,0,1,0-.2,3.62,3.62,0,0,1,.5-.65,6.34,6.34,0,0,0,1-1,1.7,1.7,0,0,1,.3-.3,16.83,16.83,0,0,1,2.66-3.12c2.13-3,4.75-6.89,8.21-8.09l.46-.38a.47.47,0,0,1,.38-.1c.17,0,.35,0,.52,0a3.77,3.77,0,0,1,.76.08h0l.42,0,0,0a3.31,3.31,0,0,0,1.08.18h0l.15.1.44.32L43.51,44l.56.19a.62.62,0,0,1,.31.23c.11-.11.22-.23.32-.35a.55.55,0,0,0,.13-.29,1,1,0,0,1,.21-.54,3.31,3.31,0,0,0,.47-1,7.9,7.9,0,0,0,.41-1.59c0-.06,0-.14,0-.2a1.54,1.54,0,0,1,.11-.79,2.26,2.26,0,0,0,.07-1.1,1.41,1.41,0,0,1,0-.5,4.2,4.2,0,0,0,.06-1.37,1.79,1.79,0,0,0-.16-.46,1,1,0,0,1-.14-.56.52.52,0,0,0-.09-.32,1.48,1.48,0,0,1-.32-.84,2.29,2.29,0,0,0-.28-.92A5.15,5.15,0,0,1,45,33c0-.1-.09-.19-.13-.29s-.19-.43-.3-.64a1.48,1.48,0,0,0-.16-.27l-.61-.71s0-.06-.06-.07a3.36,3.36,0,0,1-.85-1,2.89,2.89,0,0,0-.62-.53L41.6,29a4,4,0,0,0-.48-.32c-.47-.23-.94-.44-1.41-.66a1.1,1.1,0,0,0-.53-.14,1.24,1.24,0,0,1-.73-.29s0-.06-.06-.1a.69.69,0,0,1,.49-.23,1.44,1.44,0,0,0,.77-.33.61.61,0,0,1,.33-.1.38.38,0,0,0,.36-.2.43.43,0,0,1,.32-.23,1.39,1.39,0,0,0,1-1.24.42.42,0,0,0-.36-.49,2.64,2.64,0,0,0-.29,0,6,6,0,0,1-.73-.07,1.59,1.59,0,0,0-.75,0c-.45.12-.92.19-1.38.28a.46.46,0,0,1-.26,0,5,5,0,0,0-1.34,0A.83.83,0,0,0,36,25a.91.91,0,0,1-.64.16,1.27,1.27,0,0,0-.74.15,1,1,0,0,1-.6.08l-.49-.06a2.29,2.29,0,0,0-.9.09,2,2,0,0,1-.64.06,3.17,3.17,0,0,0-.69.07c-.5.1-1,.15-1.51.21-.27,0-.54.07-.82.09l-.87.07a2,2,0,0,0-.54.1,2.93,2.93,0,0,1-1.24.18.51.51,0,0,0-.45.18,2.88,2.88,0,0,1-.27.22c-.09.08-.11.16,0,.25s.36.36.55.52a3.17,3.17,0,0,0,.41.21c.25.14.51.26.75.4a.27.27,0,0,1,.1.22s-.1.1-.17.12a1.86,1.86,0,0,1-.52.11,2.67,2.67,0,0,0-.79.18,1.72,1.72,0,0,1-.95.14c-.09,0-.2.05-.29.1a6.07,6.07,0,0,1-.69.31,1.27,1.27,0,0,1-.55,0,1,1,0,0,0-.53.1c-.34.17-.69.33-1,.47a2.71,2.71,0,0,1-.58.11,5.73,5.73,0,0,0-.58.07.43.43,0,0,0-.27.15.93.93,0,0,1-.47.31c-.59.24-1.17.51-1.75.76a1,1,0,0,1-.22.08,4.6,4.6,0,0,0-1,.28,1.91,1.91,0,0,0-.7.38,1.5,1.5,0,0,1-.38.19l-1,.43a3,3,0,0,1-1,.27L13,33l-.29,0a5.35,5.35,0,0,1-.7.07,4.46,4.46,0,0,0-1.19.27,1.74,1.74,0,0,0-.48.22,1.06,1.06,0,0,1-.55.15,2.15,2.15,0,0,0-.86.19,2,2,0,0,1-1,.24.7.7,0,0,0-.41.12,3.29,3.29,0,0,1-.61.26,4.26,4.26,0,0,1-.49.1c-.29,0-.42,0-.53-.29a1.93,1.93,0,0,1-.09-.43c0-.09,0-.19,0-.29,0-.38-.13-.5-.5-.4l-.31.1a.49.49,0,0,0-.28.25c-.16.29-.34.57-.49.86a1.26,1.26,0,0,0-.12.42.58.58,0,0,1-.27.51,2,2,0,0,1-.78.41,1.59,1.59,0,0,0-.41.27,1.07,1.07,0,0,0-.07-.19,1,1,0,0,1-.45.2l-.67.16A39.22,39.22,0,0,1,75.84,23.54l-.08.07a.34.34,0,0,1-.19.21,5.39,5.39,0,0,0-.79.56c-.6.51-1.25,1-1.9,1.42-.49.34-.95.72-1.42,1.08a1.61,1.61,0,0,1-.28.17,5,5,0,0,0-1.11.85,11.08,11.08,0,0,1-1,.8c-.37.28-.76.54-1.14.81l-.71.51L66,31c-.09.07-.19.12-.28.18l-.46.35c-.16.14-.32.28-.49.41a6.38,6.38,0,0,1-1.14.78,1.28,1.28,0,0,0-.29.28,1.39,1.39,0,0,1-.51.39,3,3,0,0,0-1,.63,4,4,0,0,1-.45.37,13.21,13.21,0,0,1-1.15.81,5.48,5.48,0,0,0-.68.51,8.6,8.6,0,0,1-.75.56,6.62,6.62,0,0,1-1.33.8.45.45,0,0,0-.14.1,7.43,7.43,0,0,0-.73.64A7.42,7.42,0,0,1,55.1,39a1.81,1.81,0,0,0-.34.28,2.23,2.23,0,0,1-.85.61.19.19,0,0,0-.12.07,2.79,2.79,0,0,1-.48.43,14.83,14.83,0,0,1-1.69,1.26,2.41,2.41,0,0,0-.24.21.83.83,0,0,1-.22.2,2,2,0,0,0-.64.58,3.32,3.32,0,0,1-.61.5,3.33,3.33,0,0,0-.64.55,4.2,4.2,0,0,1-.63.56,5.14,5.14,0,0,0-1,1,6.46,6.46,0,0,1-.74.74l-.78.79-.11.13-1,.88c-.05,0-.12.08-.16.14a6.72,6.72,0,0,1-.92.85,6.39,6.39,0,0,0-.5.54c-.12.15-.1.25.09.35a.61.61,0,0,0,.51,0l.71-.28a.47.47,0,0,0,.12-.07l.63-.73c.11-.12.21-.23.33-.34l1-.9a.82.82,0,0,0,.17-.2,3.39,3.39,0,0,1,.91-.9,1.91,1.91,0,0,0,.33-.37,2.23,2.23,0,0,1,.43-.44A5.82,5.82,0,0,0,50,44.39a.34.34,0,0,1,.08-.09,6.9,6.9,0,0,0,1-1,5.44,5.44,0,0,1,.55-.39,1.49,1.49,0,0,0,.48-.42.51.51,0,0,1,.13-.16c.53-.31.9-.85,1.5-1.06a.83.83,0,0,0,.28-.22,7.28,7.28,0,0,1,1-.79,11.58,11.58,0,0,0,1.6-1.18,6.34,6.34,0,0,1,.65-.51l.62-.53a2.5,2.5,0,0,1,.35-.21,1.57,1.57,0,0,0,.4-.24,5.09,5.09,0,0,1,1-.75c.18-.11.33-.25.5-.37l.4-.28.4-.3a1.6,1.6,0,0,1,.38-.26,3.56,3.56,0,0,0,1.1-.82.82.82,0,0,1,.27-.22,3.37,3.37,0,0,0,1-.79,2.87,2.87,0,0,1,.88-.62,2.15,2.15,0,0,0,.46-.35,3.73,3.73,0,0,1,.43-.36,8.68,8.68,0,0,0,1-.79c.47-.4,1-.76,1.48-1.15.21-.16.41-.33.61-.5s.34-.26.52-.38l.55-.34,1.2-.83c.14-.1.27-.23.41-.34l.36-.28.69-.51,1.05-.79a1.29,1.29,0,0,0,.16-.09,3.38,3.38,0,0,1,.88-.61,1.14,1.14,0,0,0,.29-.29.52.52,0,0,1,.35-.23.84.84,0,0,0,.36-.19c.2-.16.39-.35.61-.56a1.54,1.54,0,0,0,.17.19.86.86,0,0,1,.14-.13,38.94,38.94,0,0,1,2.86,9.81l0,0-.16,0a.81.81,0,0,1-.47.51c-.48.23-.92.54-1.4.79a3.77,3.77,0,0,1-.85.31,4.49,4.49,0,0,0-1.11.46c-.15.1-.32.14-.47.23a8.15,8.15,0,0,1-1.56.58.49.49,0,0,0-.22.09,3.71,3.71,0,0,1-1.17.6c-.23.11-.48.17-.71.26a.59.59,0,0,0-.24.11,2.88,2.88,0,0,1-.78.4c-.22.11-.43.24-.64.35s-.45.24-.69.33a21.58,21.58,0,0,0-2,.92,6.74,6.74,0,0,1-.74.3c-.63.25-1.27.49-1.89.77s-1.15.59-1.73.89l-.55.27a7.88,7.88,0,0,1-1.07.47c-.68.2-1.33.52-2,.78l-.36.1a1.47,1.47,0,0,0-.25.08,4.94,4.94,0,0,1-1.17.47,6.73,6.73,0,0,0-.82.38.84.84,0,0,1-.14.06,4.38,4.38,0,0,0-1.14.58l-.48.23a2.61,2.61,0,0,0-.43.24,1.65,1.65,0,0,1-.9.45h0l-1.22.62-.36.2-.64.28-.31.1-.43.16,0,0a4.67,4.67,0,0,0-.91.32,12.15,12.15,0,0,0-1.56.58c-.33.15-.64.33-1,.49a1.66,1.66,0,0,1-.49.16,1.72,1.72,0,0,0-1,.39,1.81,1.81,0,0,1-.78.4A4.74,4.74,0,0,0,43,51c-.24.16-.24.33-.06.57s.09.2,0,.29c-.29.27-.26.39.09.57a1.13,1.13,0,0,1,.34.27.94.94,0,0,0,.53.34c.26.06.5.15.76.22a2,2,0,0,0,.49.09,3.56,3.56,0,0,1,1.11.24,8.09,8.09,0,0,0,.82.19c.16,0,.31.07.45.12a2.33,2.33,0,0,0,.85.22,1.74,1.74,0,0,1,.45.11,2.82,2.82,0,0,0,.86.19,6.42,6.42,0,0,1,.75.1l.87.15a1.18,1.18,0,0,1,.43.08,7,7,0,0,0,1.74.37,2.54,2.54,0,0,1,.37.1,2.06,2.06,0,0,0,.78.12h.14a1.27,1.27,0,0,0,.86,0,.69.69,0,0,1,.4,0,1.81,1.81,0,0,0,.73.09,12.08,12.08,0,0,1,1.9.07l1.11.11a4.35,4.35,0,0,1,1.65.47,7.08,7.08,0,0,0,.77.28,1.87,1.87,0,0,1,.4.2,4.73,4.73,0,0,0,1.7.67,1.44,1.44,0,0,1,.68.33.4.4,0,0,0,.44.1.8.8,0,0,1,.46,0c.38.09.76.15,1.15.24a2.46,2.46,0,0,1,.53.15.54.54,0,0,0,.48,0,.69.69,0,0,1,.84.07,1.89,1.89,0,0,0,.51.21l1.29.29a2.23,2.23,0,0,0,.23,0,1.81,1.81,0,0,1,.83.16,1.06,1.06,0,0,0,.4.08,4.28,4.28,0,0,1,1.58.28l.2,0c.15.05.37,0,.38.27a.13.13,0,0,0,0,.06l.39,0A39.23,39.23,0,0,1,40.45,79.68ZM28.88,73.41a.76.76,0,0,1,.22.09c-.11.07-.16.13-.22.14a.13.13,0,0,1-.12-.08C28.73,73.47,28.79,73.41,28.88,73.41Zm.73-.38c.12-.16.22-.34.35-.5a.43.43,0,0,1,.7,0c.15.18.33.33.49.5s.35.31.51.48a1.45,1.45,0,0,0,.51.38.43.43,0,0,1,.22.22.48.48,0,0,1,0,.33c-.06.11-.2.11-.32.07a2,2,0,0,1-.83-.33.5.5,0,0,0-.5-.09,2.79,2.79,0,0,1-.38.07c0-.06-.06-.08-.05-.11,0-.36-.2-.53-.49-.65l-.08,0C29.46,73.29,29.45,73.26,29.61,73Zm8.61-21.12a.78.78,0,0,0,0,.52c.06.44-.2.67-.63.54-.21-.06-.42-.14-.63-.22a.46.46,0,0,1-.31-.36c0-.18-.08-.35-.12-.52a.63.63,0,0,1,.75-.79A2.52,2.52,0,0,0,37.6,51a.47.47,0,0,1,.56.1.58.58,0,0,1,.13.65C38.27,51.81,38.24,51.86,38.22,51.91Zm.05,2.79a.22.22,0,0,1-.17.25,1.11,1.11,0,0,1-.74-.08.25.25,0,0,1-.12-.2.26.26,0,0,1,.17-.17,1.35,1.35,0,0,1,.35,0h.29C38.17,54.52,38.26,54.58,38.27,54.7Zm-1.69-.21a.45.45,0,0,1,.22.21.22.22,0,0,1-.26.29l-.63-.09-.12,0c-.19-.06-.3-.18-.27-.33s.14-.2.45-.2C36.11,54.38,36.35,54.41,36.58,54.49Zm.25,20.26a1.06,1.06,0,0,1,.48.1,1.58,1.58,0,0,0,1,.08.47.47,0,0,1,.47.07,2.4,2.4,0,0,1-.3.37,1.48,1.48,0,0,1-1.45.49.82.82,0,0,0-.26,0,.78.78,0,0,1-.53-.21.82.82,0,0,0-.51-.22,1.06,1.06,0,0,1-.3-.1.14.14,0,0,1,0-.27C35.94,74.92,36.38,74.82,36.83,74.75ZM39.89,52c0,.14,0,.34,0,.53a.3.3,0,0,1-.32.34.27.27,0,0,1-.32-.32,6.25,6.25,0,0,0,0-1.06,1,1,0,0,1,.13-.5.2.2,0,0,1,.38,0,1.23,1.23,0,0,1,.1.42,2.17,2.17,0,0,1,0,.26C39.88,51.8,39.88,51.89,39.89,52Zm-.37,2.32h0c.14,0,.28,0,.41,0s.17,0,.19.1a.29.29,0,0,1,0,.24.67.67,0,0,1-.3.16,4.1,4.1,0,0,1-.7,0c-.22,0-.34-.11-.33-.25s.14-.24.34-.26Zm1.42,20.23a.27.27,0,0,1,.31-.1,1.56,1.56,0,0,1,.37.1,1,1,0,0,0,.71,0l.92-.31a1.08,1.08,0,0,1,.77,0,3.78,3.78,0,0,0,.83.12.19.19,0,0,0,.14-.05,4.58,4.58,0,0,0,.43-.34,1.34,1.34,0,0,0,.22-.31c.16-.28.31-.33.6-.16a.78.78,0,0,1,.22.15,1,1,0,0,1,.14.22,4.58,4.58,0,0,1-.19.71.46.46,0,0,1-.65.19c-.17-.09-.34-.18-.52-.26a.49.49,0,0,0-.45.07l-1,.53a.49.49,0,0,1-.51,0,1,1,0,0,0-1.21.07.5.5,0,0,1-.69,0,3.36,3.36,0,0,1-.41-.34A.29.29,0,0,1,40.94,74.58ZM75.38,58.3l-.12,0a.52.52,0,0,1-.4.09,9.73,9.73,0,0,0-1.43-.26,2,2,0,0,1-.54-.13,3.28,3.28,0,0,0-1-.19,3.63,3.63,0,0,1-.45-.1,2.6,2.6,0,0,0-.65-.17,7.23,7.23,0,0,1-1.39-.25c-.21,0-.44-.05-.66-.08a1,1,0,0,1-.24,0c-.65-.12-1.3-.24-2-.38s-1.32-.28-2-.45a3.32,3.32,0,0,1-.8-.34,1.82,1.82,0,0,0-.78-.24,1,1,0,0,1-.72-.27,1,1,0,0,0-.37-.17L60.63,55l-.35-.08-.57-.12-1.22-.12a2.36,2.36,0,0,1-.38,0,3.5,3.5,0,0,0-1,0q-.62,0-1.23,0a.86.86,0,0,1-.34-.09.55.55,0,0,0-.45,0,.82.82,0,0,1-.49,0,3.91,3.91,0,0,0-.68-.14A9.72,9.72,0,0,1,52,54a11.58,11.58,0,0,1-1.64-.52.68.68,0,0,0-.35-.06,1.92,1.92,0,0,1-.88-.17,1.29,1.29,0,0,0-.4-.08c-.22,0-.44-.07-.65-.13A3.16,3.16,0,0,0,47,52.83a1.47,1.47,0,0,1-.29,0l-.82-.2a1,1,0,0,1-.16-.06v-.08a3.21,3.21,0,0,1,.75-.21,2,2,0,0,0,.87-.22,1.36,1.36,0,0,1,.63-.12,2.54,2.54,0,0,0,.77-.13,1.47,1.47,0,0,1,.51-.08,2,2,0,0,0,.43,0l.61-.11a8.21,8.21,0,0,1,1.21-.18c.07,0,.14-.07.21-.09a1.43,1.43,0,0,1,.34-.09,5.75,5.75,0,0,0,1.3-.19c.34-.08.7-.11,1-.17a2.58,2.58,0,0,0,.56-.16,1.34,1.34,0,0,1,.68-.13,1.34,1.34,0,0,0,.44,0c.29,0,.59-.14.89-.17a1.71,1.71,0,0,0,.77-.25.59.59,0,0,1,.5-.09.6.6,0,0,0,.23,0c.25,0,.49-.07.73-.07a5.63,5.63,0,0,0,.81-.11c.61-.13,1.23-.22,1.85-.31a3.09,3.09,0,0,0,.88-.23,1.8,1.8,0,0,1,.47-.12c.46,0,.92-.08,1.37-.16s.73-.2,1.09-.29.83-.15,1.24-.22a5,5,0,0,0,1.38-.24,1.77,1.77,0,0,1,.4-.08l.67-.06h0a1.62,1.62,0,0,0,1-.14c.32-.1.66-.16,1-.23l.29-.06a1.76,1.76,0,0,0,.89-.25.43.43,0,0,1,.23,0,6.78,6.78,0,0,0,2.1-.33,4.25,4.25,0,0,1,1-.23c.29,0,.59-.09.89-.12s.64-.13,1-.19l1.07-.17c.22,0,.29,0,.33.1l.13,0A39.29,39.29,0,0,1,75.38,58.3Zm4-13.13a1,1,0,0,1-.23-.05c0,.19-.1.27-.33.34a1.2,1.2,0,0,1-.38,0,3.62,3.62,0,0,0-1.22.15c-.17.05-.36.07-.54.12a6,6,0,0,0-1.26.27.44.44,0,0,1-.2,0,13.35,13.35,0,0,0-2,.26c-.18,0-.34.1-.51.14s-.31.06-.46.09a2.32,2.32,0,0,0-.47.13,1.13,1.13,0,0,1-.65.12,1.67,1.67,0,0,0-.86.11.42.42,0,0,1-.15,0l-1.79.25c-.16,0-.32,0-.47.06l-1.4.34a.34.34,0,0,1-.14,0,1.7,1.7,0,0,0-.83.14.75.75,0,0,1-.26,0,5.57,5.57,0,0,0-1.61.29l-.08,0c-.54,0-1,.22-1.56.2a2.52,2.52,0,0,0-.46.1,2.9,2.9,0,0,1-1.17.18,1.12,1.12,0,0,0-.4.07,4.21,4.21,0,0,1-.48.12,2.34,2.34,0,0,0-.86.19.79.79,0,0,1-.22.06c-.55.12-1.11.25-1.66.35s-.91.15-1.36.22a2.14,2.14,0,0,0-.34.09,2.39,2.39,0,0,1-.8.18,4.6,4.6,0,0,0-.74.14,3.88,3.88,0,0,1-1.06.19,2.32,2.32,0,0,0-.64.11,2.61,2.61,0,0,1-1.24.14,1,1,0,0,0-.78.14.38.38,0,0,1-.4,0,.59.59,0,0,0-.45,0,6.84,6.84,0,0,1-.72.25,5.7,5.7,0,0,1-.58.06c-.22,0-.45,0-.67.06l-1.29.24-.15,0c-.45.12-.9.24-1.35.38a1.77,1.77,0,0,0-.31.15.45.45,0,0,1-.59-.09.3.3,0,0,1,.31-.23,2.35,2.35,0,0,0,1.09-.39,10.61,10.61,0,0,1,1.06-.42,8.13,8.13,0,0,0,1.38-.7,2.87,2.87,0,0,1,1.48-.52,1.12,1.12,0,0,0,.5-.15l1.18-.64a.47.47,0,0,1,.2-.06,4.88,4.88,0,0,0,1.62-.56c.18-.08.37-.14.54-.23.53-.28,1-.58,1.56-.86l.89-.47a2.88,2.88,0,0,0,.38-.22,5.61,5.61,0,0,1,1.29-.6,2.15,2.15,0,0,0,.27-.1A7.05,7.05,0,0,1,58.55,45c.57-.18,1.12-.42,1.68-.63a1.73,1.73,0,0,1,.24-.1,9.28,9.28,0,0,0,1.79-.81l.56-.22a1.13,1.13,0,0,0,.4-.23,2.42,2.42,0,0,1,1.16-.66,2.09,2.09,0,0,0,.35-.13l.44-.16a1,1,0,0,0,.24-.11.88.88,0,0,1,.56-.21,1.2,1.2,0,0,0,.65-.26,5.32,5.32,0,0,1,1.15-.56l1.66-.74a.43.43,0,0,1,.16-.07,2.35,2.35,0,0,0,1-.43,5.43,5.43,0,0,1,1.22-.57,3.87,3.87,0,0,0,1.17-.53,4.3,4.3,0,0,1,.52-.28,2.11,2.11,0,0,0,.34-.16,1.71,1.71,0,0,1,.87-.32.45.45,0,0,0,.25-.14.56.56,0,0,1,.5-.19.51.51,0,0,0,.46-.2.47.47,0,0,1,.26-.17,4,4,0,0,0,1-.34c.44-.18.89-.36,1.34-.52A2.75,2.75,0,0,0,79,36a.27.27,0,0,1,.23,0,.31.31,0,0,1,.08.2l.09,0a37.49,37.49,0,0,1,.24,4.26A38.72,38.72,0,0,1,79.39,45.17Z"/><path class="cls-1" d="M38.62,37.42c.26.11.53.23.8.33a.38.38,0,0,0,.23,0,.8.8,0,0,0,.37-.83c-.06-.34-.16-.43-.54-.51l-.3,0-.5.15a.46.46,0,0,0-.19.82A.5.5,0,0,0,38.62,37.42Z"/><path class="cls-1" d="M30.52,64.21a1,1,0,0,0-.75-.08,5.54,5.54,0,0,0-.57.21,1.12,1.12,0,0,1-.8.1,2,2,0,0,0-.33,0,1.18,1.18,0,0,0-.76.22l-.37.34a.23.23,0,0,0-.07.33.4.4,0,0,0,.62.21.87.87,0,0,1,.87,0l.26.14a.57.57,0,0,0,.68-.08,2.57,2.57,0,0,1,1.21-.73.32.32,0,0,0,.25-.3C30.77,64.37,30.65,64.28,30.52,64.21Z"/><path class="cls-1" d="M27,62.42a.52.52,0,0,0,.25.44,5.68,5.68,0,0,0,.77.41.56.56,0,0,0,.84-.32c.13-.23.11-.32-.1-.5a10,10,0,0,1-1.31-1.13c-.09-.1-.25-.13-.37-.2s-.47.11-.67.19a.34.34,0,0,0-.24.37.48.48,0,0,0,.33.38.86.86,0,0,0,.17,0C27,62.12,27,62.13,27,62.42Z"/><path class="cls-1" d="M73.87,34.94a2.62,2.62,0,0,0,2.06-.8,3.28,3.28,0,0,0,.72-2.26,3.24,3.24,0,0,0-.72-2.25,2.61,2.61,0,0,0-2.05-.81,2.68,2.68,0,0,0-2.07.79,3.25,3.25,0,0,0-.73,2.26,3.21,3.21,0,0,0,.73,2.27A2.61,2.61,0,0,0,73.87,34.94Zm-1.31-4.72a1.6,1.6,0,0,1,1.32-.56,1.55,1.55,0,0,1,1.3.56,2.63,2.63,0,0,1,.44,1.66,2.69,2.69,0,0,1-.44,1.67,1.81,1.81,0,0,1-2.62,0,2.66,2.66,0,0,1-.44-1.67A2.63,2.63,0,0,1,72.56,30.22Z"/><path class="cls-1" d="M75,43.5h0l-1.24-4H72.21v5.25h1V42.3c0-.28,0-.84-.07-1.68h0l1.26,4.12h1l1.35-4.11h0c0,.66,0,1.07,0,1.22v2.89h1V39.49H76.3Z"/><path class="cls-1" d="M72.26,54h0L71,50H69.49v5.25h1V52.82c0-.28,0-.84-.07-1.68h0l1.26,4.12h1l1.35-4.11h0c0,.66,0,1.07,0,1.22v2.89h1V50H73.58Z"/><path class="cls-2" d="M94.34,61.81a3.88,3.88,0,0,1-2.14-.52,2.87,2.87,0,0,1-1.14-1.49,6.84,6.84,0,0,1-.34-2.28v-5a6.56,6.56,0,0,1,.35-2.25,2.76,2.76,0,0,1,1.14-1.43,3.91,3.91,0,0,1,2.13-.5,4,4,0,0,1,2.13.5,2.86,2.86,0,0,1,1.13,1.44A6.24,6.24,0,0,1,98,52.51v5a6.41,6.41,0,0,1-.35,2.25,2.94,2.94,0,0,1-1.13,1.49A3.71,3.71,0,0,1,94.34,61.81Zm0-1.45a1.75,1.75,0,0,0,1.11-.3,1.5,1.5,0,0,0,.51-.85,5.37,5.37,0,0,0,.13-1.28v-5.8A5.14,5.14,0,0,0,96,50.87a1.42,1.42,0,0,0-.51-.82,1.82,1.82,0,0,0-1.11-.29,1.87,1.87,0,0,0-1.12.29,1.42,1.42,0,0,0-.51.82,5.14,5.14,0,0,0-.13,1.26v5.8a5.37,5.37,0,0,0,.13,1.28,1.5,1.5,0,0,0,.51.85A1.8,1.8,0,0,0,94.34,60.36Z"/><path class="cls-2" d="M99.6,61.67V48.44h2.87a5.05,5.05,0,0,1,2.33.45A2.62,2.62,0,0,1,106,50.24a6,6,0,0,1,.36,2.24v4.86a6.79,6.79,0,0,1-.36,2.37,2.86,2.86,0,0,1-1.2,1.46,4.25,4.25,0,0,1-2.21.5Zm1.85-1.33h1a2.12,2.12,0,0,0,1.44-.39,1.79,1.79,0,0,0,.51-1.14,15.46,15.46,0,0,0,.09-1.81V52.7A8.31,8.31,0,0,0,104.4,51a1.39,1.39,0,0,0-.57-.93,2.52,2.52,0,0,0-1.39-.3h-1Z"/><path class="cls-2" d="M108,61.67V48.44h5.13v1.37h-3.28v4.38h2.66V55.5h-2.66v4.84h3.31v1.33Z"/><path class="cls-2" d="M117.64,61.81a3.5,3.5,0,0,1-1.9-.48A3.07,3.07,0,0,1,114.59,60a5.6,5.6,0,0,1-.46-2l1.63-.44a7.58,7.58,0,0,0,.23,1.36,2.44,2.44,0,0,0,.56,1.07,1.44,1.44,0,0,0,1.09.41,1.41,1.41,0,0,0,1.09-.4,1.65,1.65,0,0,0,.37-1.15,2.34,2.34,0,0,0-.41-1.44,7.45,7.45,0,0,0-1-1.11l-2.22-2a3.65,3.65,0,0,1-1-1.25,4.09,4.09,0,0,1-.3-1.67,2.94,2.94,0,0,1,.83-2.25,3.1,3.1,0,0,1,2.27-.8,4.46,4.46,0,0,1,1.38.2,2.48,2.48,0,0,1,1,.63,3,3,0,0,1,.64,1.07,6.16,6.16,0,0,1,.32,1.51l-1.57.43a6.24,6.24,0,0,0-.2-1.21,1.8,1.8,0,0,0-.51-.88,1.52,1.52,0,0,0-1-.33,1.45,1.45,0,0,0-1.07.37,1.4,1.4,0,0,0-.39,1.08,2.12,2.12,0,0,0,.21,1,2.71,2.71,0,0,0,.66.8l2.24,2a6.73,6.73,0,0,1,1.32,1.56,3.93,3.93,0,0,1,.57,2.14,3.33,3.33,0,0,1-.41,1.69,2.67,2.67,0,0,1-1.12,1.09A3.45,3.45,0,0,1,117.64,61.81Z"/><path class="cls-2" d="M125.2,61.81a3.5,3.5,0,0,1-1.9-.48A3.07,3.07,0,0,1,122.15,60a5.6,5.6,0,0,1-.46-2l1.63-.44a7.58,7.58,0,0,0,.23,1.36,2.44,2.44,0,0,0,.56,1.07,1.44,1.44,0,0,0,1.09.41,1.41,1.41,0,0,0,1.09-.4,1.65,1.65,0,0,0,.37-1.15,2.34,2.34,0,0,0-.41-1.44,8,8,0,0,0-1-1.11l-2.22-2a3.65,3.65,0,0,1-1-1.25,4.08,4.08,0,0,1-.31-1.67,3,3,0,0,1,.84-2.25,3.1,3.1,0,0,1,2.27-.8,4.46,4.46,0,0,1,1.38.2,2.48,2.48,0,0,1,1,.63,3,3,0,0,1,.64,1.07,6.16,6.16,0,0,1,.32,1.51l-1.57.43a6.24,6.24,0,0,0-.2-1.21,1.8,1.8,0,0,0-.51-.88,1.54,1.54,0,0,0-1-.33,1.45,1.45,0,0,0-1.07.37,1.4,1.4,0,0,0-.39,1.08,2.12,2.12,0,0,0,.21,1,2.71,2.71,0,0,0,.66.8l2.24,2a6.73,6.73,0,0,1,1.32,1.56,3.93,3.93,0,0,1,.57,2.14,3.33,3.33,0,0,1-.41,1.69,2.67,2.67,0,0,1-1.12,1.09A3.45,3.45,0,0,1,125.2,61.81Z"/><path class="cls-2" d="M128.92,61.67l2.81-13.23h1.78l2.83,13.23h-1.75l-.6-3.33h-2.7l-.63,3.33ZM131.54,57h2.2l-1.11-6Z"/><path class="cls-2" d="M141.06,61.67l.24-13.23h1.81l2.34,10.73,2.35-10.73h1.8l.24,13.23h-1.48l-.15-9.6L146,61.67h-1l-2.22-9.6-.15,9.6Z"/><path class="cls-2" d="M151,61.67l2.81-13.23h1.78l2.83,13.23h-1.75l-.6-3.33h-2.7l-.64,3.33ZM153.6,57h2.2l-1.11-6Z"/><path class="cls-2" d="M159.57,61.67V48.44h2.66a5.94,5.94,0,0,1,2.19.35,2.46,2.46,0,0,1,1.28,1.13,4.25,4.25,0,0,1,.42,2,6.05,6.05,0,0,1-.16,1.4,2.71,2.71,0,0,1-.53,1.06,2,2,0,0,1-.94.63l1.87,6.63h-1.78l-1.73-6.21h-1.43v6.21Zm1.85-7.53h.7a3.25,3.25,0,0,0,1.27-.2,1.3,1.3,0,0,0,.72-.66,3.18,3.18,0,0,0,.23-1.33,2.64,2.64,0,0,0-.42-1.67,2.17,2.17,0,0,0-1.69-.52h-.81Z"/><path class="cls-2" d="M168,61.67V48.44h1.81V61.67Z"/><path class="cls-2" d="M171.77,61.67V48.44H173l3.75,8.79V48.44h1.54V61.67h-1.18l-3.8-9v9Z"/><path class="cls-2" d="M180.23,61.67V48.44h5.12v1.37h-3.28v4.38h2.66V55.5h-2.66v4.84h3.32v1.33Z"/><path class="cls-2" d="M90.93,79.67l.25-13.22H93l2.33,10.73,2.35-10.73h1.8l.24,13.22H98.23l-.15-9.6-2.23,9.6h-1l-2.22-9.6-.15,9.6Z"/><path class="cls-2" d="M102.36,79.67l2.81-13.22H107l2.82,13.22H108l-.61-3.33h-2.69l-.64,3.33ZM105,75h2.21l-1.11-6Z"/><path class="cls-2" d="M112.45,79.67V66.45h1.26l3.75,8.78V66.45H119V79.67h-1.18l-3.8-9v9Z"/><path class="cls-2" d="M121.69,79.67l2.81-13.22h1.78l2.82,13.22h-1.74l-.61-3.33h-2.69l-.64,3.33ZM124.3,75h2.21l-1.11-6Z"/><path class="cls-2" d="M134.87,79.84a3.4,3.4,0,0,1-2-.53,3,3,0,0,1-1.07-1.55,7.54,7.54,0,0,1-.34-2.43V70.91a8.9,8.9,0,0,1,.3-2.48,2.88,2.88,0,0,1,1.08-1.56,3.76,3.76,0,0,1,2.17-.54,4.15,4.15,0,0,1,2,.42,2.46,2.46,0,0,1,1.1,1.27,5.88,5.88,0,0,1,.34,2.17v.49h-1.73v-.41a7.59,7.59,0,0,0-.11-1.41,1.36,1.36,0,0,0-.47-.82,1.8,1.8,0,0,0-1.1-.27,1.62,1.62,0,0,0-1.19.38,1.78,1.78,0,0,0-.45,1,10.58,10.58,0,0,0-.09,1.46v4.9a7.06,7.06,0,0,0,.14,1.58,1.61,1.61,0,0,0,.53,1,1.79,1.79,0,0,0,1.11.31,1.62,1.62,0,0,0,1.11-.35,1.79,1.79,0,0,0,.54-1,8.49,8.49,0,0,0,.14-1.66v-.92h-1.68v-1.3h3.35v6.54H137.4l-.18-1.51a2.75,2.75,0,0,1-.82,1.2A2.26,2.26,0,0,1,134.87,79.84Z"/><path class="cls-2" d="M141.79,79.67V66.45h5.13v1.37h-3.28V72.2h2.66v1.3h-2.66v4.85H147v1.32Z"/><path class="cls-2" d="M149.74,79.67,150,66.45h1.81l2.34,10.73,2.35-10.73h1.79l.25,13.22H157l-.15-9.6-2.23,9.6h-1l-2.22-9.6-.14,9.6Z"/><path class="cls-2" d="M161.89,79.67V66.45H167v1.37h-3.28V72.2h2.66v1.3h-2.66v4.85h3.31v1.32Z"/><path class="cls-2" d="M169.88,79.67V66.45h1.25l3.76,8.78V66.45h1.53V79.67h-1.17l-3.81-9v9Z"/><path class="cls-2" d="M181.29,79.67V67.82h-2.24V66.45h6.25v1.37h-2.17V79.67Z"/><path class="cls-3" d="M92.59,39.62q-2.82-3.45-2.82-10.15V14q0-6.7,2.82-10.07T102,.57q6.54,0,9.38,3.4t2.84,10v15.5q0,6.65-2.84,10.1T102,43.07Q95.4,43.07,92.59,39.62Zm12.29-4a8.89,8.89,0,0,0,.75-4V12a8.57,8.57,0,0,0-.75-4,3.67,3.67,0,0,0-5.77,0,8.57,8.57,0,0,0-.75,4V31.56a9.16,9.16,0,0,0,.72,4,3.62,3.62,0,0,0,5.8,0Z"/><path class="cls-3" d="M139.51,1.35h10.7V42.51H142V16.7h-.29l-4.24,25.81h-6.58L126.64,16.7h-.3V42.51h-8.23V1.35h10.7l5.35,28.93Z"/><path class="cls-3" d="M175.25,1.35H186V42.51h-8.23V16.7h-.29L173.2,42.51h-6.59L162.38,16.7h-.3V42.51h-8.23V1.35h10.7l5.35,28.93Z"/></svg>